<?xml version="1.0" standalone="no"?>
<!DOCTYPE svg PUBLIC "-//W3C//DTD SVG 20010904//EN"
 "http://www.w3.org/TR/2001/REC-SVG-20010904/DTD/svg10.dtd">
<svg version="1.0" xmlns="http://www.w3.org/2000/svg"
 width="307.000000pt" height="307.000000pt" viewBox="0 0 307.000000 307.000000"
 preserveAspectRatio="xMidYMid meet">
<metadata>
Created by potrace 1.14, written by Peter Selinger 2001-2017
</metadata>
<g transform="translate(0.000000,307.000000) scale(0.100000,-0.100000)"
fill="#000000" stroke="none">
<path d="M0 2992 c0 -49 5 -83 12 -91 10 -11 10 -13 1 -7 -18 10 -16 -10 3
-39 14 -22 15 -25 1 -31 -21 -8 -20 -83 1 -106 12 -14 12 -18 2 -18 -10 0 -11
-3 -3 -11 16 -16 33 -2 33 27 0 21 4 24 20 19 10 -3 28 -1 39 4 13 7 22 8 26
1 3 -5 15 -10 27 -10 15 0 19 5 15 20 -6 25 9 36 28 20 8 -6 18 -9 24 -6 5 3
11 1 13 -5 2 -7 31 -13 67 -15 35 -1 67 -7 70 -13 4 -5 27 -13 51 -17 48 -7
100 -32 100 -48 0 -5 25 -6 57 -3 42 4 63 2 77 -9 11 -8 16 -14 11 -14 -5 0 6
-13 23 -28 18 -16 32 -35 32 -42 0 -8 9 -11 29 -7 16 3 33 1 40 -6 9 -9 14 -8
21 3 5 8 9 20 9 25 0 6 -3 5 -5 -2 -4 -8 -16 -1 -36 18 -17 16 -40 29 -50 29
-11 0 -30 8 -43 19 -19 14 -21 21 -12 31 9 10 9 11 0 6 -7 -4 -13 -3 -13 3 0
5 -3 16 -6 24 -4 12 0 14 18 11 13 -2 17 -2 11 2 -7 3 -13 10 -13 15 0 12 32
-4 54 -27 20 -19 22 -41 3 -25 -10 8 -17 7 -25 -1 -17 -17 -15 -23 13 -36 37
-17 47 -15 40 8 -3 11 -3 20 2 20 4 0 14 -9 21 -20 7 -11 19 -20 26 -20 8 0
17 -6 20 -12 3 -7 3 -2 0 12 -3 14 -13 32 -21 40 -12 13 -13 13 -7 -5 6 -18 5
-18 -9 -5 -21 21 -32 61 -15 55 15 -6 19 37 6 51 -5 4 -8 15 -8 25 0 10 -8 20
-17 22 -10 3 -3 5 15 6 26 1 32 -3 32 -19 0 -13 7 -20 20 -20 25 0 63 -37 54
-53 -4 -7 -3 -9 1 -4 12 10 65 -43 65 -64 0 -10 5 -21 10 -24 6 -3 10 -11 10
-17 0 -7 -5 -7 -14 1 -11 9 -15 9 -19 -1 -4 -10 -7 -10 -15 1 -6 9 -12 10 -16
2 -4 -7 -15 -7 -30 -1 -20 7 -25 5 -30 -13 -3 -11 -4 -21 -3 -22 1 0 17 -8 35
-18 18 -10 32 -15 31 -10 -5 31 21 47 37 21 4 -7 3 -8 -4 -4 -7 4 -12 3 -12
-2 0 -5 14 -9 30 -9 22 0 29 4 26 14 -6 15 29 18 39 3 3 -5 17 -10 31 -10 18
0 23 4 18 13 -6 9 -5 9 8 0 8 -7 18 -10 21 -6 11 10 -13 32 -28 27 -9 -4 -12
0 -8 14 5 20 -29 42 -35 23 -2 -6 -10 -11 -18 -11 -8 0 -14 -8 -14 -17 0 -14
-3 -14 -12 -5 -10 10 -10 15 -1 20 6 4 14 49 18 102 4 52 9 102 11 110 1 8 3
19 3 23 1 5 10 5 21 2 14 -5 20 -2 20 9 0 21 16 21 24 0 3 -8 2 -12 -4 -9 -11
7 -34 -44 -25 -53 3 -3 5 0 5 6 0 7 5 12 10 12 6 0 10 -20 10 -45 0 -25 5 -45
10 -45 6 0 10 5 10 10 0 6 14 9 30 8 32 -2 34 -8 24 -71 -5 -30 -9 -35 -20
-26 -22 18 -16 -6 6 -26 17 -15 24 -16 46 -7 31 15 37 15 28 0 -4 -7 -3 -8 5
-4 6 4 9 11 6 15 -2 5 22 19 55 32 33 13 60 27 60 31 0 5 5 8 11 8 5 0 7 -6 3
-12 -5 -9 -4 -10 4 -3 14 12 92 7 92 -6 0 -5 -4 -9 -10 -9 -5 0 -10 -4 -10
-10 0 -5 7 -10 17 -10 9 0 13 3 10 6 -3 4 -2 15 4 25 5 11 6 19 2 20 -74 6
-123 19 -75 19 12 0 22 6 22 13 0 8 3 9 8 1 4 -6 20 -15 37 -21 23 -7 29 -15
30 -39 0 -27 3 -29 42 -32 35 -3 42 0 37 12 -9 23 6 40 19 23 7 -8 21 -17 31
-21 16 -5 17 -4 6 9 -9 10 -9 15 -1 15 8 0 8 5 0 18 -8 13 -9 27 -2 48 l10 29
1 -36 c0 -53 15 -74 54 -77 26 -2 30 0 18 9 -11 8 -3 9 32 6 26 -2 51 0 57 4
6 5 9 6 6 3 -6 -9 14 -44 25 -44 5 0 7 7 4 15 -4 8 -1 15 5 15 6 0 11 -5 11
-10 0 -6 15 -8 40 -4 33 5 40 4 40 -10 0 -9 7 -16 15 -16 8 0 14 -3 14 -7 -4
-22 4 -32 31 -43 16 -7 35 -19 42 -28 11 -13 8 -12 -20 2 -18 9 -38 14 -44 10
-7 -4 -8 -3 -4 4 4 7 3 12 -3 12 -5 0 -18 3 -28 6 -17 5 -17 5 0 -6 11 -7 17
-24 17 -48 0 -28 3 -33 10 -22 8 13 10 12 10 -2 0 -11 8 -18 19 -18 11 0 23
-5 26 -10 4 -6 10 -8 15 -5 5 3 21 0 36 -5 24 -9 25 -9 14 5 -9 11 -10 15 0
15 6 0 14 -8 17 -19 2 -10 15 -24 27 -31 13 -6 30 -25 40 -41 9 -16 21 -29 25
-29 5 0 12 -7 15 -16 4 -9 2 -13 -5 -8 -7 4 -10 -1 -7 -12 2 -11 12 -19 24
-19 11 0 32 -12 46 -27 14 -16 29 -28 33 -28 4 0 -16 25 -44 56 -50 55 -61 74
-41 74 6 0 10 -6 10 -13 0 -20 77 -91 82 -76 3 9 6 8 11 -5 4 -9 3 -15 -2 -12
-5 3 -8 -6 -8 -19 0 -15 5 -25 13 -25 13 0 19 -13 15 -34 -1 -5 4 -13 11 -17
9 -6 4 -9 -14 -9 -16 0 -28 -4 -28 -9 0 -14 33 -22 108 -26 37 -2 78 -8 92
-14 25 -9 25 -9 -5 -8 -16 0 -46 -2 -65 -6 -25 -5 -29 -4 -15 2 l20 10 -20 0
c-11 1 -31 4 -44 8 -16 4 -22 3 -18 -5 4 -5 1 -13 -5 -15 -7 -3 -1 -6 14 -6
35 -1 59 -11 52 -22 -3 -5 1 -6 8 -4 7 3 41 2 75 -3 44 -6 63 -5 67 3 2 7 19
9 42 7 36 -5 37 -6 14 -13 -14 -4 -38 -11 -55 -15 l-30 -7 25 -7 c14 -5 45 -9
70 -10 25 -1 54 -5 65 -10 16 -7 12 -9 -20 -11 l-40 -2 50 -7 c28 -4 64 -5 80
-3 17 3 46 -2 65 -10 34 -15 35 -15 8 -16 -16 -1 -28 4 -28 9 0 12 -36 12 -65
1 -14 -6 1 -13 60 -28 109 -28 171 -41 227 -49 l47 -6 1 572 0 573 -211 -6
c-146 -4 -215 -10 -225 -18 -13 -10 -17 -10 -24 1 -7 11 -12 11 -23 2 -8 -7
-22 -9 -31 -6 -10 4 -27 2 -39 -4 -12 -5 -49 -15 -82 -22 -33 -7 -74 -16 -91
-21 -17 -5 -38 -7 -46 -4 -9 4 -19 2 -23 -4 -3 -6 -17 -11 -30 -11 -13 0 -26
-4 -30 -10 -3 -5 -11 -7 -18 -4 -12 4 -125 -28 -149 -42 -5 -4 -27 -8 -49 -9
-22 -2 -56 -16 -83 -35 -39 -26 -46 -28 -46 -13 -1 16 -2 17 -13 2 -15 -20
-85 -45 -152 -54 -27 -3 -62 -11 -77 -17 -29 -11 -44 -40 -32 -59 4 -8 3 -9
-4 -5 -7 4 -12 19 -12 34 -1 26 -20 62 -34 62 -4 0 -22 11 -40 25 -36 27 -52
32 -39 13 4 -7 6 -22 4 -32 -2 -11 7 -27 21 -38 13 -10 17 -18 10 -18 -19 0
-74 60 -68 74 3 7 5 6 5 -2 1 -7 5 -11 10 -8 13 8 1 48 -12 43 -7 -2 -14 -14
-17 -28 -6 -22 -7 -22 -11 8 -3 18 -1 34 5 37 6 2 -1 5 -16 5 -14 1 -35 4 -45
7 -11 4 -14 3 -7 -3 10 -7 14 -17 31 -78 6 -20 5 -20 -16 -1 -12 11 -20 25
-17 32 9 22 -41 69 -74 69 -17 1 -30 -5 -30 -11 0 -7 8 -10 19 -7 10 3 21 0
25 -5 8 -14 -25 -21 -52 -11 -15 6 -22 17 -22 34 0 14 4 25 10 25 5 0 7 7 3
16 -3 9 -1 19 6 23 9 6 8 14 -2 35 -13 24 -15 25 -20 7 -3 -11 0 -22 7 -24 6
-2 7 -8 3 -13 -11 -11 -27 15 -27 46 0 19 -2 22 -9 10 -6 -8 -7 -18 -5 -22 3
-4 -2 -8 -10 -8 -9 0 -16 5 -16 10 0 6 5 10 10 10 6 0 10 5 10 10 0 6 -48 10
-124 10 -73 0 -127 -4 -131 -10 -3 -5 3 -10 15 -10 12 0 18 -4 15 -10 -3 -5
-15 -10 -27 -10 -13 0 -18 -5 -15 -14 4 -10 1 -13 -9 -9 -8 3 -26 -5 -40 -18
l-25 -23 23 -18 c25 -19 43 -24 34 -9 -7 11 22 23 35 15 5 -3 9 -13 8 -22 0
-14 -2 -13 -9 3 -6 13 -9 15 -9 5 -1 -23 12 -36 38 -37 30 -2 34 -6 28 -35
l-4 -23 -8 23 c-6 18 -13 22 -31 18 -12 -3 -24 -2 -26 4 -2 5 -14 11 -27 13
-13 2 -29 11 -36 20 -7 9 -19 17 -27 17 -16 0 -78 55 -78 69 0 5 5 11 11 13 8
3 5 10 -6 22 -13 13 -20 14 -25 5 -6 -8 -9 -6 -13 7 -4 17 -5 17 -12 -3 -6
-18 -14 -22 -42 -21 -22 1 -39 8 -46 20 -7 10 -21 18 -32 17 -19 0 -19 -1 3
-11 22 -11 30 -28 12 -28 -5 0 -10 5 -10 10 0 6 -6 10 -12 10 -7 -1 1 -12 17
-25 17 -14 26 -25 22 -25 -4 0 -3 -9 3 -20 8 -15 8 -20 -1 -20 -8 0 -8 -4 1
-15 6 -8 16 -13 20 -12 5 1 16 -7 25 -18 16 -20 16 -20 10 3 -9 31 -1 28 46
-19 39 -39 48 -67 12 -38 -15 13 -16 12 -9 -6 12 -33 12 -40 -4 -40 -8 0 -16
10 -18 22 -2 15 -18 28 -54 43 -27 12 -51 20 -53 18 -1 -2 -7 -16 -12 -33 -10
-31 -25 -37 -29 -10 -1 8 -9 22 -18 31 -15 14 -16 14 -16 -1 0 -11 -5 -15 -16
-11 -8 3 -12 2 -9 -3 3 -5 1 -12 -5 -16 -17 -11 -11 -32 11 -38 13 -4 19 -1
16 6 -2 7 3 19 11 27 14 13 15 12 9 -2 -3 -9 0 -22 8 -28 8 -6 11 -18 8 -26
-4 -12 -8 -12 -26 1 -12 8 -29 15 -39 15 -16 0 -22 13 -21 47 0 6 -6 9 -13 6
-8 -3 -12 -9 -9 -13 3 -4 -2 -11 -11 -14 -9 -3 -14 -13 -10 -21 3 -8 -3 -19
-12 -24 -16 -9 -15 -11 3 -25 11 -8 17 -18 13 -21 -11 -11 -38 2 -45 22 -8 22
-35 43 -45 37 -5 -3 -8 2 -8 11 0 9 4 14 9 11 5 -4 4 5 -2 19 -13 28 -37 34
-37 9 0 -8 5 -12 10 -9 6 3 10 1 10 -4 0 -18 -19 -12 -30 9 -6 11 -17 20 -26
20 -17 0 -33 36 -27 61 3 10 15 20 26 23 33 9 44 7 27 -4 -10 -7 -11 -10 -2
-10 8 0 10 -8 6 -27 -6 -21 -4 -25 8 -20 9 3 26 -2 39 -11 14 -10 24 -12 26
-5 5 15 43 4 43 -13 0 -8 4 -14 9 -14 15 0 10 61 -6 67 -21 8 -15 26 8 20 17
-5 20 -2 15 17 -4 15 1 26 16 35 19 12 20 11 14 -12 -5 -20 -2 -25 11 -23 11
2 20 16 25 37 8 41 6 44 -21 29 -12 -6 -21 -7 -21 -1 0 5 6 11 13 14 7 3 5 7
-8 12 -11 3 -28 11 -37 16 -27 14 -185 11 -192 -3 -5 -10 -7 -10 -12 0 -3 6
-16 12 -28 12 -12 0 -28 -6 -35 -12 -11 -10 -13 -10 -7 0 5 9 -11 12 -68 12
l-76 0 0 -78z m400 57 c13 -9 13 -10 -2 -6 -15 5 -15 3 -2 -30 20 -47 11 -53
-22 -14 -14 17 -30 29 -35 25 -5 -3 -9 -1 -9 5 0 11 29 30 45 31 6 0 17 -5 25
-11z m-195 -9 c3 -5 -1 -10 -10 -10 -9 0 -13 5 -10 10 3 6 8 10 10 10 2 0 7
-4 10 -10z m-155 -10 c0 -5 -5 -10 -11 -10 -5 0 -7 5 -4 10 3 6 8 10 11 10 2
0 4 -4 4 -10z m183 -37 c-7 -19 -47 -85 -41 -68 17 50 33 85 40 85 4 0 4 -8 1
-17z m972 -3 c3 -5 1 -17 -4 -27 -5 -10 -12 -26 -15 -35 -3 -10 -15 -18 -26
-18 -12 0 -18 5 -15 10 3 6 1 10 -4 10 -6 0 -11 -4 -11 -10 0 -5 -4 -10 -10
-10 -5 0 -10 7 -10 15 0 8 -5 15 -11 15 -5 0 -7 -4 -4 -10 3 -5 -1 -10 -9 -10
-20 0 -20 11 0 36 8 10 12 13 8 5 -5 -11 -3 -13 10 -8 10 4 27 7 37 7 11 0 18
4 14 9 -3 5 -1 12 5 16 5 3 10 1 10 -4 0 -6 4 -11 10 -11 5 0 7 7 4 15 -7 16
11 21 21 5z m-865 -10 c24 -15 7 -19 -20 -5 -15 8 -19 14 -10 14 8 1 22 -3 30
-9z m580 0 c0 -5 -5 -10 -11 -10 -5 0 -7 5 -4 10 3 6 8 10 11 10 2 0 4 -4 4
-10z m-573 -52 c-3 -8 -6 -5 -6 6 -1 11 2 17 5 13 3 -3 4 -12 1 -19z m-280
-10 c-3 -8 -6 -5 -6 6 -1 11 2 17 5 13 3 -3 4 -12 1 -19z m-30 6 c-3 -3 -12
-4 -19 -1 -8 3 -5 6 6 6 11 1 17 -2 13 -5z m68 -44 c3 -6 -1 -7 -9 -4 -18 7
-21 14 -7 14 6 0 13 -4 16 -10z m1220 0 c3 -5 2 -10 -4 -10 -5 0 -13 5 -16 10
-3 6 -2 10 4 10 5 0 13 -4 16 -10z m-1260 -19 c-3 -6 -11 -11 -16 -11 -5 0 -4
6 3 14 14 16 24 13 13 -3z m825 3 c0 -8 -5 -12 -10 -9 -6 4 -8 11 -5 16 9 14
15 11 15 -7z m367 -6 c-3 -8 -6 -5 -6 6 -1 11 2 17 5 13 3 -3 4 -12 1 -19z
m-80 -10 c-3 -8 -6 -5 -6 6 -1 11 2 17 5 13 3 -3 4 -12 1 -19z m43 -5 c0 -21
-3 -24 -9 -14 -5 8 -7 20 -4 28 8 21 13 15 13 -14z m-1140 -20 c0 -10 -4 -14
-8 -8 -4 6 -11 13 -16 18 -5 4 -2 7 7 7 10 0 17 -8 17 -17z m185 7 c2 -4 -11
-7 -30 -8 -19 -1 -35 3 -35 8 0 10 59 10 65 0z m-78 -13 c4 -6 0 -8 -10 -4
-23 9 -53 -3 -37 -13 9 -5 6 -10 -8 -14 -13 -4 -19 -13 -15 -22 7 -18 -21 -18
-62 1 l-30 13 28 1 c15 1 27 -3 27 -9 0 -5 5 -10 11 -10 7 0 9 9 6 21 -3 11
-3 27 -1 34 6 15 82 17 91 2z m673 -2 c11 -13 10 -14 -4 -9 -9 3 -16 10 -16
15 0 13 6 11 20 -6z m110 -27 c-9 -46 -5 -62 12 -52 8 5 9 1 5 -10 -4 -10 -7
-20 -7 -22 0 -2 -7 -4 -16 -4 -10 0 -14 6 -10 15 3 8 1 15 -5 15 -5 0 -22 12
-36 26 -19 19 -23 28 -14 37 8 8 15 6 25 -9 14 -18 15 -18 22 14 10 51 33 41
24 -10z m486 -9 c3 -6 1 -16 -4 -21 -8 -8 -13 -3 -18 16 -4 16 -13 26 -25 26
-11 0 -19 7 -19 16 0 13 5 12 30 -6 16 -11 32 -26 36 -31z m-255 6 c1 6 1 15
-1 20 -1 6 2 6 9 0 7 -7 8 -26 2 -55 -8 -41 -9 -42 -10 -12 -1 18 -7 35 -14
38 -7 2 -13 15 -14 27 -2 21 -1 21 12 -3 8 -14 15 -20 16 -15z m-742 -6 c14
-42 14 -41 -9 -29 -12 6 -20 21 -20 35 0 35 16 31 29 -6z m811 15 c0 -9 -7
-14 -17 -12 -25 5 -28 28 -4 28 12 0 21 -6 21 -16z m-1106 -40 c4 -10 1 -14
-6 -12 -15 5 -23 28 -10 28 5 0 13 -7 16 -16z m611 6 c3 -5 1 -10 -4 -10 -6 0
-11 5 -11 10 0 6 2 10 4 10 3 0 8 -4 11 -10z m492 -22 c-3 -7 -5 -2 -5 12 0
14 2 19 5 13 2 -7 2 -19 0 -25z m-602 12 c3 -5 1 -10 -4 -10 -6 0 -11 5 -11
10 0 6 2 10 4 10 3 0 8 -4 11 -10z m575 -5 c0 -8 -4 -15 -10 -15 -5 0 -7 7 -4
15 4 8 8 15 10 15 2 0 4 -7 4 -15z m-680 -15 c0 -5 -2 -10 -4 -10 -3 0 -8 5
-11 10 -3 6 -1 10 4 10 6 0 11 -4 11 -10z m62 -12 c-3 -12 -1 -19 5 -15 5 3
10 1 10 -6 0 -7 -14 -13 -31 -13 -17 -1 -23 1 -13 3 20 5 22 19 5 29 -8 5 -6
10 8 15 10 4 20 8 21 8 0 1 -1 -9 -5 -21z m1248 -23 c0 -8 -4 -15 -10 -15 -5
0 -7 7 -4 15 4 8 8 15 10 15 2 0 4 -7 4 -15z m-890 -30 c0 -8 -2 -15 -4 -15
-2 0 -6 7 -10 15 -3 8 -1 15 4 15 6 0 10 -7 10 -15z m1160 -55 c11 -6 25 -20
31 -33 10 -18 6 -17 -22 8 -19 17 -36 31 -38 33 -13 7 13 0 29 -8z m-1375 -20
c3 -5 -1 -10 -9 -10 -9 0 -16 5 -16 10 0 6 4 10 9 10 6 0 13 -4 16 -10z m1400
-120 c13 -24 13 -30 2 -30 -8 0 -14 6 -14 13 0 6 -4 20 -8 30 -12 29 3 19 20
-13z m130 -70 c10 -11 14 -20 9 -20 -5 0 -15 9 -22 20 -7 11 -11 20 -9 20 2 0
12 -9 22 -20z m244 -286 c10 -9 -56 -3 -69 7 -11 7 -4 8 25 3 22 -4 42 -8 44
-10z m144 -31 c3 -5 -16 -9 -42 -9 -39 -2 -42 -1 -16 6 42 11 53 11 58 3z"/>
<path d="M615 3060 c3 -5 15 -10 26 -10 10 0 19 5 19 10 0 6 -12 10 -26 10
-14 0 -23 -4 -19 -10z"/>
<path d="M839 3054 c34 -15 61 -13 61 6 0 5 -21 10 -47 9 l-48 -1 34 -14z"/>
<path d="M1267 3050 c-3 -13 -5 -25 -4 -26 1 -1 18 4 37 12 33 12 33 13 8 13
-14 1 -28 7 -30 13 -3 7 -7 2 -11 -12z"/>
<path d="M535 2978 c4 -13 13 -29 21 -37 11 -13 14 -12 20 3 4 11 -1 24 -14
37 -28 25 -35 24 -27 -3z"/>
<path d="M250 2905 c0 -14 2 -25 4 -25 2 0 6 11 8 25 3 14 1 25 -3 25 -5 0 -9
-11 -9 -25z"/>
<path d="M356 2854 c-9 -22 -8 -24 9 -18 8 4 15 12 15 20 0 19 -16 18 -24 -2z"/>
<path d="M355 2810 c-3 -5 -1 -10 4 -10 6 0 11 5 11 10 0 6 -2 10 -4 10 -3 0
-8 -4 -11 -10z"/>
<path d="M225 2730 c3 -5 11 -10 16 -10 6 0 7 5 4 10 -3 6 -11 10 -16 10 -6 0
-7 -4 -4 -10z"/>
<path d="M1100 2710 c0 -11 4 -20 9 -20 5 0 7 9 4 20 -3 11 -7 20 -9 20 -2 0
-4 -9 -4 -20z"/>
<path d="M1122 2719 c2 -6 8 -10 13 -10 5 0 11 4 13 10 2 6 -4 11 -13 11 -9 0
-15 -5 -13 -11z"/>
<path d="M96 2711 c-7 -11 17 -21 47 -21 19 0 19 2 -7 15 -33 18 -33 18 -40 6z"/>
<path d="M204 2708 c-7 -12 -7 -12 36 -25 33 -10 32 -11 -17 -6 -52 4 -74 -9
-32 -20 12 -3 19 -10 16 -14 -3 -5 8 -17 26 -27 32 -17 32 -17 10 2 -14 12
-18 23 -13 33 7 11 10 10 16 -4 3 -9 17 -17 30 -17 25 0 33 -15 12 -23 -7 -2
11 -7 39 -11 40 -5 61 -15 90 -41 20 -19 40 -32 43 -29 3 3 -2 11 -11 17 -8 7
-18 20 -22 30 -3 9 -12 17 -19 17 -7 0 -22 8 -33 16 -19 15 -18 16 23 10 34
-5 42 -3 42 9 0 8 9 15 20 15 11 0 20 -5 20 -11 0 -5 -5 -7 -12 -3 -8 5 -9 2
-5 -10 4 -10 7 -21 7 -26 0 -4 9 -6 20 -3 13 4 20 0 20 -10 0 -13 18 -23 73
-41 9 -3 17 0 17 6 0 6 11 8 30 5 16 -4 32 -2 35 3 3 6 -3 10 -14 10 -12 0
-21 6 -21 13 0 9 -3 8 -9 -2 -7 -11 -9 -11 -14 0 -5 12 -7 12 -15 1 -5 -8 -20
-12 -33 -10 -20 3 -17 6 19 18 23 7 42 19 42 26 0 7 4 14 10 16 6 2 6 8 0 18
-8 13 -10 12 -10 -3 0 -10 -4 -16 -9 -12 -5 3 -12 1 -16 -5 -3 -5 -28 -10 -56
-10 -42 0 -49 3 -49 19 0 11 -6 22 -12 25 -7 3 -3 3 9 1 12 -3 24 -1 28 5 3 5
-1 10 -9 10 -9 0 -16 4 -16 10 0 5 -7 7 -15 4 -8 -4 -23 0 -32 7 -15 13 -15
12 -5 -8 11 -19 10 -22 -8 -20 -11 1 -20 7 -20 14 0 8 -12 13 -28 13 -15 0
-32 4 -38 9 -13 13 -133 21 -140 9z m186 -37 c0 -5 -8 -15 -17 -22 -11 -10
-14 -10 -9 -1 4 6 2 12 -3 12 -6 0 -11 5 -11 10 0 6 9 10 20 10 11 0 20 -4 20
-9z"/>
<path d="M890 2679 c0 -5 5 -7 10 -4 6 3 10 8 10 11 0 2 -4 4 -10 4 -5 0 -10
-5 -10 -11z"/>
<path d="M1720 2673 c-13 -15 -12 -16 4 -10 10 4 25 7 34 7 15 0 15 2 2 10
-20 13 -22 12 -40 -7z"/>
<path d="M108 2673 c7 -3 16 -2 19 1 4 3 -2 6 -13 5 -11 0 -14 -3 -6 -6z"/>
<path d="M1580 2669 c0 -6 4 -19 10 -29 12 -22 55 -18 80 6 12 12 12 14 -7 14
-12 0 -26 -7 -31 -17 -9 -14 -10 -14 -16 4 -7 22 -36 40 -36 22z"/>
<path d="M1687 2625 c-18 -13 -17 -15 15 -30 l33 -16 -24 19 -25 20 27 -5 c15
-3 27 -9 27 -14 0 -5 7 -9 16 -9 10 0 14 -6 10 -15 -6 -18 15 -20 32 -3 7 7
15 8 24 1 25 -19 48 -23 48 -8 0 23 -36 38 -61 25 -22 -12 -42 -4 -21 9 17 10
-32 33 -54 24 -9 -3 -19 -1 -23 5 -4 7 -12 6 -24 -3z m88 -23 c-3 -3 -11 0
-18 7 -9 10 -8 11 6 5 10 -3 15 -9 12 -12z"/>
<path d="M0 2613 c0 -5 9 -14 20 -21 11 -7 20 -19 20 -27 0 -10 10 -15 28 -15
29 0 48 -11 71 -42 10 -13 10 -22 -2 -45 -10 -19 -12 -35 -6 -51 10 -27 22
-22 58 20 13 16 34 28 47 28 12 0 25 4 29 10 8 12 -33 53 -45 45 -6 -4 -10 7
-10 24 0 28 -49 101 -50 74 0 -7 -8 -13 -17 -13 -13 0 -14 -3 -6 -11 6 -6 9
-18 6 -26 -5 -12 -7 -12 -14 -1 -7 10 -9 10 -9 1 0 -7 -4 -13 -10 -13 -5 0
-10 11 -10 25 0 21 -5 25 -31 25 -17 0 -39 5 -50 10 -10 6 -19 7 -19 3z"/>
<path d="M1547 2606 c-4 -10 -1 -13 9 -9 15 6 19 23 5 23 -5 0 -11 -7 -14 -14z"/>
<path d="M1280 2574 c0 -8 -5 -14 -10 -14 -6 0 -3 -11 5 -24 9 -13 18 -34 20
-46 7 -39 15 -35 15 6 0 22 -6 46 -12 53 -11 11 -10 12 1 6 7 -4 16 -2 21 5 4
7 10 -5 14 -29 3 -23 10 -41 15 -41 5 0 11 -16 13 -35 4 -39 1 -43 -17 -18
-11 15 -12 14 -8 -11 4 -21 3 -27 -6 -22 -9 6 -10 0 -5 -20 5 -19 4 -25 -5
-20 -6 4 -11 15 -12 24 -1 11 -4 8 -9 -8 -7 -23 -8 -23 -9 -3 -1 12 -5 25 -11
28 -5 3 -8 0 -5 -7 4 -9 -5 -13 -29 -14 l-34 0 -1 57 c0 60 -22 120 -44 118
-8 0 -8 -2 2 -6 11 -4 11 -7 0 -13 -8 -5 -18 -2 -27 8 -7 9 -11 11 -7 5 4 -8
0 -13 -10 -13 -9 0 -13 -4 -10 -10 4 -7 -2 -7 -18 -1 -14 6 -27 7 -30 5 -6 -6
-57 -10 -142 -13 -36 -1 -46 -4 -35 -11 13 -8 13 -10 -1 -10 -9 0 -19 3 -23 7
-10 10 -136 11 -142 2 -3 -5 -14 -3 -24 3 -11 7 -23 9 -27 5 -4 -5 -1 -12 7
-17 21 -13 3 -12 -22 1 -26 14 -35 4 -14 -16 19 -20 13 -35 -15 -35 -13 0 -20
-6 -18 -17 3 -34 -1 -54 -10 -49 -5 4 -12 0 -15 -6 -3 -9 -5 -8 -3 2 1 8 -3
16 -8 17 -6 2 -10 -10 -10 -25 0 -21 -4 -26 -19 -24 -17 3 -18 2 -6 -13 12
-14 10 -17 -8 -22 -12 -3 -22 -9 -22 -14 0 -4 -8 -8 -17 -8 -40 -1 -53 -5 -53
-15 -1 -6 -7 0 -14 13 -8 15 -16 20 -20 12 -4 -6 -3 -11 3 -11 6 0 8 -7 5 -15
-4 -8 -10 -13 -14 -10 -5 3 -10 0 -13 -7 -2 -7 -3 -5 -1 5 1 9 -6 27 -15 39
-14 17 -18 18 -18 5 0 -10 4 -17 9 -17 15 0 8 -29 -9 -39 -17 -10 -16 -10 2
-11 17 0 17 -2 5 -10 -8 -5 -12 -10 -7 -11 51 -10 76 -40 43 -52 -8 -3 -16
-16 -18 -29 -2 -12 -11 -24 -20 -26 -13 -2 -16 1 -12 12 4 10 1 16 -9 16 -8 0
-18 -6 -20 -12 -3 -7 -6 -3 -6 10 -1 18 4 23 21 20 11 -2 23 2 25 9 3 7 -8 10
-31 8 -20 -2 -36 1 -36 6 0 5 4 9 8 9 4 0 8 10 9 22 1 11 8 25 15 31 9 6 8 7
-4 3 -10 -3 -18 -1 -18 4 0 6 -6 10 -14 10 -8 0 -17 4 -20 8 -3 5 9 7 27 4 18
-2 28 0 22 5 -17 13 -17 34 -1 52 14 15 14 19 0 39 -8 12 -21 22 -28 22 -14 0
-30 -45 -21 -59 2 -5 -16 -6 -41 -3 -37 4 -49 1 -56 -12 -5 -9 -16 -16 -24
-16 -8 0 -12 4 -9 10 3 6 -1 7 -9 4 -9 -3 -16 -9 -16 -13 0 -3 -17 -6 -37 -6
-25 0 -37 -4 -36 -12 2 -7 -4 -13 -13 -13 -10 0 -14 6 -10 15 3 8 1 15 -4 15
-16 0 -13 -227 3 -233 9 -4 9 -6 0 -6 -20 -1 -15 -39 4 -44 17 -4 17 -5 0 -6
-14 -1 -17 -10 -16 -51 1 -27 6 -50 11 -50 5 0 6 5 3 10 -3 6 -1 10 5 10 6 0
8 5 5 10 -3 6 -3 10 0 10 12 0 30 -25 32 -43 1 -14 -4 -17 -18 -14 -10 3 -17
1 -13 -4 8 -13 42 -11 47 4 2 6 8 9 12 4 5 -4 0 -14 -11 -23 -18 -14 -17 -15
19 -12 20 2 37 0 37 -5 0 -4 3 -6 8 -4 4 3 16 1 27 -4 13 -6 -10 -7 -60 -4
-53 3 -73 2 -59 -4 28 -12 38 -38 16 -44 -15 -4 -15 -5 1 -6 10 0 26 -8 35
-17 18 -18 22 -18 -50 2 -20 6 -21 5 -9 -10 11 -13 11 -16 0 -16 -9 0 -10 -3
-4 -8 6 -4 10 -19 11 -34 2 -54 4 -58 27 -57 16 1 18 2 4 6 -23 6 -22 23 3 23
11 0 20 7 20 15 0 8 -9 15 -21 15 -11 0 -17 4 -14 10 4 6 16 8 27 4 14 -4 18
-2 14 5 -4 6 -1 11 8 11 8 0 18 -5 22 -12 5 -7 3 -8 -6 -3 -8 5 -11 4 -7 -2 4
-6 16 -13 28 -16 15 -4 19 -2 15 9 -4 10 -2 12 7 7 21 -14 100 -32 140 -33 33
0 37 -3 37 -25 0 -17 -6 -25 -17 -26 -15 0 -15 -2 -3 -7 20 -9 26 -112 8 -125
-9 -6 -8 -7 4 -3 10 3 18 1 18 -4 0 -5 -8 -11 -18 -13 -10 -3 -6 -5 11 -6 30
-1 37 -17 10 -24 -11 -3 -7 -5 10 -6 15 0 27 -5 27 -9 0 -11 66 -33 100 -35
14 -1 37 2 52 6 34 9 35 3 41 -135 3 -67 1 -105 -8 -122 -7 -13 -11 -27 -7
-30 3 -3 -1 -6 -10 -6 -8 0 -15 -7 -15 -15 0 -8 2 -13 5 -10 7 7 42 -14 42
-25 0 -6 -7 -10 -15 -10 -8 0 -15 -5 -15 -11 0 -6 6 -9 14 -6 24 10 49 -74 26
-88 -10 -6 -43 10 -74 37 -29 26 -39 22 -32 -14 3 -18 3 -28 -2 -23 -11 16
-60 35 -75 29 -19 -7 -71 51 -63 72 6 14 4 15 -9 4 -9 -7 -15 -9 -14 -4 4 21
-2 34 -15 34 -8 0 -16 -10 -18 -22 -2 -13 -10 -24 -19 -26 -12 -2 -15 3 -12
21 6 33 -9 40 -65 32 -43 -6 -45 -8 -27 -21 10 -8 35 -14 54 -14 33 -1 34 -2
18 -14 -10 -8 -26 -12 -36 -9 -23 6 -38 -15 -17 -23 23 -9 20 -24 -4 -24 -11
0 -20 5 -20 10 0 6 -4 10 -8 10 -5 0 -9 -6 -9 -14 0 -9 13 -16 33 -18 18 -2
32 -1 31 2 -2 10 14 50 21 51 4 0 22 2 40 4 21 2 32 -1 29 -9 -2 -6 -14 -10
-27 -8 -15 3 -21 -1 -18 -10 3 -7 15 -12 26 -11 13 2 26 -5 33 -18 8 -17 7
-23 -8 -35 -26 -20 -38 -17 -53 11 -15 28 -25 32 -33 11 -3 -8 4 -24 15 -36
17 -18 28 -21 59 -17 22 3 37 1 33 -4 -3 -5 12 -9 33 -9 52 0 67 -16 41 -42
-11 -11 -17 -22 -14 -26 4 -3 13 3 21 14 11 13 14 14 13 4 -2 -10 7 -16 30
-18 17 -2 32 -6 31 -10 0 -10 -96 -82 -108 -82 -23 0 2 -28 30 -34 30 -6 41
-26 14 -26 -8 0 -14 -3 -14 -7 4 -26 -4 -33 -36 -33 -36 0 -43 12 -25 40 8 12
10 11 10 -7 0 -22 14 -31 24 -15 9 16 -12 34 -44 38 -40 5 -47 11 -33 25 16
16 4 46 -20 53 -12 3 -40 6 -62 6 -22 0 -35 4 -28 8 16 10 4 27 -24 36 -13 4
-23 12 -23 17 0 5 -8 9 -17 9 -15 0 -13 -4 7 -20 15 -11 19 -20 11 -20 -8 0
-3 -8 12 -20 14 -11 34 -20 44 -20 10 0 24 -5 31 -12 8 -8 15 -8 27 2 10 8 15
9 15 1 0 -6 -4 -11 -10 -11 -5 0 -10 -12 -10 -26 0 -23 -3 -26 -25 -22 -14 3
-30 -1 -36 -9 -16 -19 -2 -30 21 -15 10 6 22 8 24 3 3 -5 -2 -12 -11 -15 -14
-6 -14 -8 3 -21 26 -19 12 -19 -36 3 -30 12 -40 22 -36 34 2 11 -1 18 -10 18
-8 0 -14 4 -14 9 0 5 -18 11 -41 15 -33 5 -39 9 -30 20 10 11 6 16 -19 21 -17
4 -30 12 -29 18 3 26 -2 37 -16 37 -11 0 -15 -11 -15 -40 0 -32 4 -40 19 -40
10 0 46 -14 80 -32 45 -23 61 -37 61 -52 0 -13 -3 -17 -8 -9 -4 6 -20 15 -35
18 -15 4 -27 10 -27 14 0 4 -8 7 -17 7 -10 0 -30 3 -46 7 -16 4 -27 3 -27 -2
0 -13 38 -34 49 -27 10 7 45 -30 38 -41 -2 -4 5 -17 16 -28 16 -16 19 -17 14
-3 -4 12 -2 15 8 12 7 -3 15 -14 18 -26 7 -26 41 -20 45 9 3 18 -1 21 -20 17
-23 -5 -23 -5 1 9 15 9 39 13 63 9 26 -3 38 -1 38 7 0 8 8 10 22 5 13 -4 32
-7 43 -8 13 -1 21 -9 23 -23 3 -17 12 -24 40 -29 34 -7 35 -8 14 -17 -12 -6
-22 -16 -22 -22 0 -7 -7 -18 -15 -25 -13 -11 -18 -11 -28 0 -10 10 -8 12 6 7
11 -4 16 -3 12 3 -3 6 -12 10 -20 10 -7 0 -15 3 -17 8 -1 4 -20 20 -41 35 -36
27 -39 28 -62 13 -31 -20 -31 -27 -1 -55 32 -30 54 -24 26 7 l-21 22 30 0 c21
0 32 -6 36 -19 4 -12 12 -18 21 -14 16 6 20 -12 4 -22 -17 -11 -11 -22 11 -21
39 2 32 -22 -10 -34 l-40 -10 22 -23 c13 -13 27 -20 33 -15 6 4 15 3 20 -2 11
-10 104 9 104 22 0 5 5 6 10 3 6 -4 8 -15 5 -26 -5 -15 -1 -19 14 -19 12 0 21
-7 21 -15 0 -8 -9 -15 -20 -15 -11 0 -20 6 -20 13 0 8 -3 7 -9 -3 -7 -10 -1
-20 25 -37 35 -24 42 -39 23 -45 -8 -3 -6 -15 6 -38 10 -21 12 -30 4 -23 -7 7
-20 13 -29 13 -22 -1 18 -30 42 -30 10 0 18 -4 18 -8 0 -5 13 -7 30 -4 35 5
41 -15 12 -41 -24 -22 -39 -21 -54 3 -22 35 -37 24 -19 -14 18 -37 64 -71 83
-60 7 4 8 3 4 -4 -4 -7 -15 -12 -24 -13 -11 0 -12 -2 -4 -6 19 -7 4 -23 -16
-16 -9 3 -27 16 -40 29 -13 13 -28 24 -34 24 -6 0 5 -14 25 -31 21 -17 37 -38
37 -45 0 -20 1686 -21 1693 -1 4 9 8 8 16 -3 5 -8 12 -12 15 -10 2 3 -3 16
-13 28 -11 15 -23 21 -34 16 -14 -5 -15 -9 -6 -20 13 -16 -2 -19 -18 -3 -7 7
-24 6 -57 -2 -26 -6 -50 -9 -53 -5 -4 3 3 6 13 6 11 0 29 7 40 16 16 13 16 15
2 10 -13 -4 -18 0 -18 14 0 11 -6 20 -12 20 -7 0 -2 7 11 17 23 15 25 15 39
-3 13 -18 14 -18 7 4 -5 19 -2 25 14 29 12 3 21 10 21 15 0 5 4 7 9 4 5 -3 12
6 15 20 6 21 9 24 21 14 10 -8 15 -9 15 -2 0 18 -20 25 -35 12 -7 -6 -19 -10
-27 -9 -23 4 -98 -12 -171 -38 -38 -13 -77 -22 -86 -20 -9 2 1 7 22 12 42 8
67 39 40 49 -9 4 -13 9 -10 12 3 3 -3 14 -14 25 -11 11 -17 24 -14 29 3 5 1
11 -5 15 -5 3 -10 15 -10 26 0 10 -4 19 -9 19 -5 0 -13 9 -16 20 -4 11 -11 17
-17 14 -7 -4 -8 -2 -4 4 4 7 2 20 -3 29 -6 10 -11 13 -11 6 0 -9 -8 -9 -31 -1
-17 6 -28 16 -26 23 3 6 -3 18 -14 26 -19 14 -27 35 -9 24 5 -3 7 0 4 9 -3 8
-12 17 -20 20 -8 3 -14 11 -14 18 0 7 -7 26 -15 41 -8 16 -16 56 -17 89 -2 33
-6 62 -10 64 -4 3 -4 12 -1 20 4 10 -2 17 -16 21 -11 3 -21 10 -21 15 0 5 -5
6 -10 3 -6 -4 -7 -11 -4 -17 4 -6 2 -8 -3 -5 -17 11 -23 47 -8 47 8 0 12 8 10
20 -2 11 0 20 6 20 5 0 9 12 9 28 0 15 7 37 15 49 13 19 26 69 40 158 8 52 17
65 36 55 29 -16 130 12 126 34 -1 6 6 10 15 10 10 -1 15 3 11 9 -4 6 0 8 11 4
9 -4 14 -3 11 2 -3 5 -1 13 5 16 26 16 152 221 157 254 10 80 -30 151 -85 151
-15 0 -34 5 -42 10 -24 16 6 29 46 20 26 -6 33 -5 27 4 -4 7 0 3 11 -8 28 -32
63 -109 58 -130 -3 -14 0 -17 12 -13 9 4 16 3 16 -2 0 -5 9 -11 21 -14 12 -3
18 -10 14 -16 -3 -6 -2 -11 4 -11 5 0 11 6 14 13 3 9 8 9 21 -2 15 -12 17 -12
14 0 -2 8 2 13 9 12 20 -4 65 16 58 26 -3 6 1 13 8 18 16 9 37 46 37 63 0 7
-16 -2 -35 -19 -45 -39 -105 -43 -144 -8 -21 18 -23 19 -11 2 14 -19 14 -19
-3 -6 -10 8 -16 20 -13 27 3 8 0 13 -6 11 -6 -1 -13 4 -15 11 -3 8 1 10 11 6
9 -4 16 -1 16 6 0 16 -32 83 -43 91 -5 4 1 7 14 7 60 0 163 42 140 57 -6 3
-11 2 -11 -3 0 -10 -52 -32 -75 -32 -7 0 -15 9 -18 19 -4 16 2 21 24 26 16 4
31 11 34 16 4 5 18 9 33 9 20 0 23 3 13 9 -12 8 -12 12 2 25 8 9 20 16 26 16
5 0 13 5 17 12 5 7 2 9 -8 5 -11 -4 -18 2 -23 16 -6 18 -8 19 -12 5 -6 -25
-39 -32 -65 -14 -37 26 -41 18 -6 -13 l32 -28 -32 -17 c-35 -18 -112 -19 -124
-2 -11 16 -10 26 3 26 5 0 7 -6 3 -12 -4 -7 6 1 23 17 16 17 32 38 36 48 5 12
18 17 49 18 l43 1 -43 10 c-46 10 -122 76 -122 106 0 13 3 12 16 -4 16 -20 8
1 -8 23 -6 7 -11 36 -11 66 -2 40 -8 62 -28 88 -14 19 -31 50 -39 69 -7 19
-17 40 -22 45 -6 6 -6 2 -2 -9 5 -13 4 -17 -3 -13 -6 4 -14 1 -16 -5 -3 -7 -6
-2 -6 12 -1 27 -26 70 -41 70 -5 0 -3 -15 4 -32 29 -71 30 -79 4 -74 -92 17
-96 18 -91 32 4 10 0 12 -11 8 -9 -3 -16 -2 -16 4 0 5 8 13 17 16 15 6 15 8 3
16 -21 14 -43 12 -34 -2 5 -8 2 -9 -10 -5 -10 4 -22 7 -28 7 -5 0 -2 7 6 16
18 18 21 34 5 34 -5 0 -8 4 -5 8 3 5 -2 22 -10 38 -8 16 -10 24 -4 18 6 -6 22
-9 35 -7 22 5 22 6 7 24 -17 20 -72 27 -72 9 0 -5 -6 -10 -14 -10 -8 0 -18 -4
-21 -10 -3 -6 1 -7 9 -4 12 5 16 -1 16 -22 0 -23 -2 -26 -11 -14 -8 12 -10 12
-8 -5 4 -50 -3 -58 -16 -20 -11 33 -13 36 -15 15 l-1 -25 -10 25 c-9 22 -16
65 -19 120 0 11 -3 10 -11 -4 -9 -15 -13 -16 -20 -5 -6 9 -9 -1 -9 -28 0 -24
-4 -43 -10 -43 -12 0 -11 88 1 96 5 3 9 10 9 15 0 5 -13 3 -30 -6 l-30 -15 17
-42 c12 -31 14 -43 5 -46 -7 -2 -12 -13 -12 -23 0 -11 -4 -18 -9 -14 -6 3 -14
-3 -20 -12 -10 -17 -10 -17 -11 0 0 17 -3 18 -42 21 -12 0 -23 7 -25 14 -3 6
-11 12 -19 12 -9 0 -13 3 -11 8 3 4 -1 13 -9 20 -12 11 -14 10 -15 -5 0 -10
-9 2 -20 26 -13 30 -16 47 -9 51 7 5 8 15 1 32 -8 21 -16 26 -45 26 -24 0 -36
-5 -36 -14z m-103 -63 c0 -11 -5 -17 -9 -15 -4 3 -8 -1 -8 -8 0 -9 -3 -9 -10
2 -14 22 -12 30 5 24 8 -4 15 -1 15 5 0 6 2 11 4 11 3 0 4 -9 3 -19z m397 -17
c3 -8 2 -12 -4 -9 -6 3 -10 10 -10 16 0 14 7 11 14 -7z m-489 -34 c3 -5 1 -10
-4 -10 -6 0 -11 5 -11 10 0 6 2 10 4 10 3 0 8 -4 11 -10z m72 -11 c2 -16 -1
-19 -9 -11 -5 5 -7 15 -4 21 10 15 12 14 13 -10z m-112 -20 c13 -20 0 -15 -25
9 -23 22 -23 24 -3 13 12 -6 25 -16 28 -22z m-64 -26 c13 -17 13 -17 -6 -3
-11 8 -22 16 -24 17 -2 2 0 3 6 3 6 0 17 -8 24 -17z m-191 -87 c0 -2 -8 -10
-17 -17 -16 -13 -17 -12 -4 4 13 16 21 21 21 13z m561 -33 c13 -16 12 -17 -3
-4 -10 7 -18 15 -18 17 0 8 8 3 21 -13z m-1201 -3 c0 -5 -7 -10 -16 -10 -8 0
-12 5 -9 10 3 6 10 10 16 10 5 0 9 -4 9 -10z m1210 -29 c0 -5 -7 -12 -16 -15
-14 -5 -15 -4 -4 9 14 17 20 19 20 6z m110 -32 c0 -6 7 -8 16 -5 9 4 22 1 30
-4 7 -6 18 -10 26 -9 7 2 23 -1 36 -5 20 -7 21 -10 10 -24 -10 -12 -10 -14 0
-8 7 4 12 2 12 -4 0 -15 25 -40 41 -40 9 0 9 -3 -1 -15 -10 -12 -8 -14 9 -10
11 2 23 -1 26 -6 4 -5 11 -7 16 -3 5 3 8 0 7 -8 -2 -7 5 -12 14 -12 10 1 15
-2 12 -8 -3 -5 -14 -6 -25 -3 -25 8 -26 -29 -1 -45 16 -11 16 -11 -2 -6 -13 5
-17 2 -13 -8 3 -8 -1 -17 -9 -20 -24 -9 -16 -36 11 -36 14 0 25 4 25 10 0 6
10 5 25 -2 32 -14 31 -19 -5 -43 -23 -15 -27 -22 -18 -30 15 -12 22 -35 11
-35 -5 0 -23 9 -40 20 -32 19 -33 19 -21 0 10 -15 9 -22 -5 -38 -9 -10 -17
-26 -17 -35 0 -9 -4 -17 -8 -17 -4 0 -8 -9 -9 -20 -1 -11 3 -20 10 -20 8 0 8
-3 -1 -12 -16 -16 -15 -58 1 -58 7 0 8 -3 2 -8 -16 -11 -14 -42 2 -42 13 0 13
-3 3 -15 -8 -10 -10 -30 -6 -60 7 -41 5 -45 -14 -45 -11 0 -30 9 -42 20 -12
11 -28 20 -35 20 -8 0 -12 4 -9 9 3 5 -4 11 -15 14 -14 4 -20 11 -16 21 5 13
2 13 -20 5 -21 -8 -29 -6 -45 11 -23 24 -12 27 14 3 17 -15 18 -15 18 0 0 9
-16 27 -34 39 -34 22 -52 53 -37 62 4 3 23 3 42 1 19 -2 28 -1 22 2 -18 7 -16
23 2 23 8 0 15 5 15 10 0 6 -6 10 -12 10 -10 0 -10 2 0 9 8 4 14 12 15 17 1 5
5 8 9 7 3 -1 9 4 12 12 5 13 -5 20 -26 16 -5 0 -8 4 -8 10 0 6 7 9 15 5 11 -4
15 2 15 25 0 19 -4 28 -11 23 -7 -4 -9 5 -6 30 3 20 2 34 -2 32 -4 -3 -13 -1
-21 5 -13 7 -12 9 3 9 9 0 17 5 17 10 0 6 -8 14 -17 17 -10 4 -26 17 -36 30
-10 13 -25 23 -33 23 -8 0 -14 10 -14 23 0 12 -4 17 -8 12 -4 -6 -15 -2 -29
12 -12 13 -17 23 -10 23 9 0 8 3 -1 9 -11 6 -11 17 -3 48 13 46 41 69 92 76
19 2 37 5 42 5 4 1 7 -3 7 -9z m-1017 -125 c-8 -12 -10 -24 -6 -26 5 -1 3 -19
-4 -38 -10 -30 -12 -32 -12 -10 -1 14 2 49 5 78 6 45 9 50 19 35 10 -14 10
-21 -2 -39z m1384 -51 c-4 -3 -13 0 -20 9 -6 9 -25 19 -41 22 -23 6 -27 9 -15
17 7 5 10 9 6 9 -5 0 -6 4 -3 9 3 5 22 -6 43 -25 20 -19 33 -37 30 -41z m-97
55 c0 -4 -7 -8 -15 -8 -8 0 -15 4 -15 8 0 5 7 9 15 9 8 0 15 -4 15 -9z m-1369
-11 c0 -3 7 -23 15 -42 8 -20 12 -41 8 -48 -4 -7 -4 -9 1 -5 8 8 35 -15 35
-30 0 -5 9 -16 20 -23 17 -13 18 -18 7 -53 -8 -24 -28 -51 -54 -73 -24 -20
-43 -41 -43 -49 0 -7 -5 -16 -11 -19 -13 -9 -8 27 6 37 18 13 -1 18 -33 9 -17
-5 -34 -6 -37 -1 -6 9 61 23 75 15 5 -3 7 7 6 22 -3 22 -9 28 -28 29 -32 1
-50 12 -42 26 4 7 10 4 16 -6 5 -9 14 -14 19 -10 6 3 5 12 -3 22 -12 14 -10
14 11 3 17 -9 26 -10 34 -2 8 8 6 11 -9 12 -11 0 -14 3 -6 6 9 4 10 8 2 18 -9
11 -7 12 10 8 11 -3 23 -9 26 -14 3 -5 20 -8 37 -8 l32 2 -30 4 c-16 3 -36 10
-43 15 -7 6 -29 11 -48 10 -31 -1 -33 0 -19 14 8 8 15 19 15 24 0 5 8 7 18 4
14 -5 15 -4 2 5 -11 7 -21 5 -39 -12 -13 -12 -21 -16 -17 -9 8 14 5 15 -18 6
-9 -3 -13 -10 -10 -15 3 -5 0 -9 -5 -9 -6 0 -11 4 -11 9 0 15 29 33 44 28 8
-3 17 1 20 9 4 10 13 13 26 9 15 -5 20 -2 20 12 0 14 -2 15 -9 4 -7 -11 -11
-10 -20 7 -9 18 -8 20 12 16 12 -2 8 1 -10 7 l-32 12 22 18 c21 18 39 21 38 6z
m36 -9 c-3 -8 -6 -5 -6 6 -1 11 2 17 5 13 3 -3 4 -12 1 -19z m212 -27 c7 -5
12 -13 10 -18 -2 -5 -12 -1 -21 9 -19 19 -13 24 11 9z m341 -29 c0 5 5 6 10 3
21 -13 -3 -25 -52 -25 -42 0 -48 2 -39 14 8 10 21 12 46 6 21 -5 35 -4 35 2z
m-368 -34 c-8 -8 -9 -4 -5 13 4 13 8 18 11 10 2 -7 -1 -18 -6 -23z m-562 8 c0
-3 -4 -8 -10 -11 -5 -3 -10 -1 -10 4 0 6 5 11 10 11 6 0 10 -2 10 -4z m560
-61 c-7 -8 -18 -15 -24 -15 -6 0 -3 7 8 15 11 8 15 19 11 27 -6 10 -5 10 5 1
11 -10 11 -15 0 -28z m-500 -11 c0 -8 -4 -14 -9 -14 -6 0 -9 9 -8 19 1 22 17
18 17 -5z m45 16 c-3 -5 -12 -10 -18 -10 -7 0 -6 4 3 10 19 12 23 12 15 0z
m162 -16 c-3 -3 -12 -4 -19 -1 -8 3 -5 6 6 6 11 1 17 -2 13 -5z m18 -14 c-3
-5 -12 -10 -18 -10 -7 0 -6 4 3 10 19 12 23 12 15 0z m-60 -10 c-3 -5 2 -10
11 -10 10 0 15 -3 11 -6 -10 -10 -39 5 -32 16 3 5 8 10 11 10 3 0 2 -4 -1 -10z
m385 -8 c0 -14 -45 -46 -84 -60 -35 -12 -41 -11 -55 4 -9 9 -11 14 -5 11 6 -3
22 0 35 7 14 7 37 16 52 20 15 3 27 11 27 16 0 6 7 10 15 10 8 0 15 -3 15 -8z
m167 -52 c11 0 14 -8 11 -30 -4 -24 0 -31 22 -40 39 -16 84 -19 92 -6 6 8 8 8
8 -1 0 -7 7 -10 17 -6 10 4 14 2 10 -4 -3 -5 -9 -25 -12 -43 -3 -19 -10 -39
-15 -46 -6 -6 -6 -14 -2 -18 4 -5 -10 3 -30 15 -21 13 -35 30 -33 36 2 7 1 12
-3 12 -24 -4 -72 2 -69 9 3 4 -9 7 -25 7 -21 0 -37 8 -50 26 -20 26 -20 27 -2
55 10 16 28 37 39 47 18 17 20 17 23 3 2 -9 10 -16 19 -16z m-522 10 c-3 -5
-1 -10 5 -10 6 0 8 -4 5 -10 -3 -5 -1 -10 6 -10 7 0 10 -2 7 -6 -3 -3 -20 4
-38 15 -32 19 -32 19 -9 24 13 2 25 5 27 6 2 0 0 -3 -3 -9z m341 -110 c-9 -37
-15 -92 -12 -128 2 -37 0 -58 -5 -50 -7 10 -9 9 -9 -4 0 -9 -3 -25 -6 -35 -5
-15 -4 -15 5 -3 7 9 11 10 11 3 0 -6 -4 -15 -10 -18 -5 -3 -10 -20 -10 -36 0
-22 -6 -32 -26 -39 -44 -17 -112 -12 -134 10 -11 11 -24 20 -29 20 -5 0 -11 7
-15 15 -3 8 0 15 6 15 7 0 3 7 -8 15 -18 13 -17 14 18 15 20 0 39 4 42 8 3 5
-12 7 -33 5 -26 -2 -40 1 -44 9 -3 10 4 13 31 10 24 -3 33 -1 28 7 -4 6 -13
11 -19 10 -17 -3 -47 11 -47 22 0 5 10 10 23 10 l22 2 -22 4 c-17 3 -23 11
-23 29 0 20 4 24 18 20 9 -3 24 -1 32 4 12 8 11 11 -7 16 -27 8 -28 12 -6 36
9 10 11 18 5 18 -8 0 -5 12 6 35 15 31 21 34 57 34 22 0 51 -6 65 -14 14 -8
32 -14 40 -14 8 0 3 7 -13 15 l-28 15 53 28 53 27 3 -25 c2 -14 -3 -55 -12
-91z m-151 90 c3 -5 1 -10 -4 -10 -6 0 -11 5 -11 10 0 6 2 10 4 10 3 0 8 -4
11 -10z m-365 -10 c0 -5 -2 -10 -4 -10 -3 0 -8 5 -11 10 -3 6 -1 10 4 10 6 0
11 -4 11 -10z m110 0 c0 -5 -4 -10 -10 -10 -5 0 -10 5 -10 10 0 6 5 10 10 10
6 0 10 -4 10 -10z m38 1 c11 -7 11 -9 -1 -14 -9 -3 -18 1 -21 9 -6 16 2 18 22
5z m-118 -21 c0 -5 -2 -10 -4 -10 -3 0 -8 5 -11 10 -3 6 -1 10 4 10 6 0 11 -4
11 -10z m933 -36 c20 -20 34 -41 30 -47 -3 -6 -1 -7 5 -3 6 3 13 2 16 -2 6
-10 -28 -44 -62 -61 -25 -13 -27 -10 -36 44 -3 17 -8 41 -12 54 -4 15 -3 22 3
18 5 -3 10 0 10 8 0 8 -4 12 -9 9 -4 -3 -8 0 -8 5 0 21 27 10 63 -25z m-690
-4 c-3 -12 -8 -19 -11 -16 -5 6 5 36 12 36 2 0 2 -9 -1 -20z m-228 1 c-3 -5 7
-12 22 -14 26 -4 26 -4 -4 -6 -31 -1 -41 7 -26 22 9 10 15 8 8 -2z m118 2 c-7
-2 -21 -2 -30 0 -10 3 -4 5 12 5 17 0 24 -2 18 -5z m-188 -13 c3 -5 1 -10 -4
-10 -6 0 -11 5 -11 10 0 6 2 10 4 10 3 0 8 -4 11 -10z m1860 -11 c11 -17 -1
-21 -15 -4 -8 9 -8 15 -2 15 6 0 14 -5 17 -11z m208 -16 c46 -9 33 -29 -17
-23 -14 1 -18 -3 -13 -19 4 -17 2 -18 -14 -8 -21 13 -25 27 -8 27 6 0 1 9 -12
21 l-24 20 30 -6 c17 -3 42 -9 58 -12z m-1806 -15 c-3 -8 -6 -5 -6 6 -1 11 2
17 5 13 3 -3 4 -12 1 -19z m-260 -14 c-3 -3 -12 -4 -19 -1 -8 3 -5 6 6 6 11 1
17 -2 13 -5z m1820 -11 c-4 -3 -2 -12 5 -20 6 -7 8 -16 4 -20 -3 -4 -13 2 -20
13 -11 14 -11 21 -3 26 15 10 23 10 14 1z m-1158 -130 c10 -19 9 -22 -4 -17
-8 4 -15 15 -15 27 0 23 2 22 19 -10z m1206 7 c3 -5 1 -10 -4 -10 -6 0 -11 5
-11 10 0 6 2 10 4 10 3 0 8 -4 11 -10z m-685 -24 c0 -8 3 -21 6 -30 7 -17 -3
-21 -23 -8 -7 4 -10 17 -6 30 6 24 23 30 23 8z m546 -8 c-10 -6 -22 -6 -26 -2
-5 5 3 10 18 11 22 1 24 0 8 -9z m-34 -23 c0 -5 5 -19 11 -30 9 -18 9 -19 -6
-6 -15 12 -16 10 -11 -18 5 -24 3 -31 -9 -31 -14 0 -32 -26 -29 -41 1 -4 -13
-9 -30 -13 -24 -5 -29 -10 -25 -26 3 -13 1 -18 -6 -13 -6 4 -8 0 -4 -10 3 -9
1 -18 -6 -21 -7 -2 -2 -5 9 -5 12 -1 27 6 34 14 7 8 17 15 22 15 11 0 60 55
70 79 6 14 7 14 7 -1 1 -28 3 -32 20 -46 13 -11 12 -11 -8 -1 -21 10 -23 9
-18 -5 4 -9 2 -16 -3 -16 -5 0 -20 -11 -33 -24 -14 -14 -28 -22 -31 -19 -3 4
-6 0 -6 -7 0 -8 -10 -24 -22 -37 -12 -13 -16 -23 -10 -23 7 0 12 -6 12 -14 0
-22 -62 -136 -71 -130 -4 2 -10 0 -14 -6 -4 -6 -10 -8 -15 -5 -4 3 -6 -3 -3
-14 3 -10 0 -22 -6 -25 -6 -4 -11 -1 -11 6 0 8 -3 9 -8 3 -8 -11 -42 -16 -40
-6 3 14 -15 41 -27 41 -16 0 -30 33 -16 38 6 2 9 8 5 13 -3 5 0 9 6 9 6 0 9 4
6 9 -3 5 1 12 10 15 19 7 47 -12 38 -25 -3 -5 0 -9 6 -9 6 0 8 -6 5 -12 -4 -7
0 -6 7 2 8 8 20 20 27 26 10 9 10 13 0 19 -8 5 -10 4 -5 -3 4 -7 1 -12 -9 -12
-8 0 -18 7 -21 15 -4 8 -10 13 -14 10 -11 -7 -23 32 -14 46 3 6 0 15 -7 20
-11 7 -9 9 6 9 15 0 17 2 7 9 -11 6 -6 17 23 45 20 21 33 41 29 48 -4 6 -3 8
4 4 6 -3 23 8 39 25 15 17 40 44 56 61 15 16 27 31 27 33 0 2 5 16 10 30 10
25 40 33 42 10z m53 -95 c3 -5 1 -10 -4 -10 -6 0 -11 5 -11 10 0 6 2 10 4 10
3 0 8 -4 11 -10z m-33 -116 c-12 -8 -20 -19 -17 -24 9 -15 -19 -30 -35 -18
-12 8 -12 9 3 4 11 -3 17 -1 16 7 -4 23 13 47 34 47 21 0 21 0 -1 -16z m8 -24
c0 -5 -2 -10 -4 -10 -3 0 -8 5 -11 10 -3 6 -1 10 4 10 6 0 11 -4 11 -10z m-75
-40 c-3 -5 -11 -10 -16 -10 -6 0 -7 5 -4 10 3 6 11 10 16 10 6 0 7 -4 4 -10z
m9 -58 c3 -5 -1 -9 -9 -9 -8 0 -15 4 -15 9 0 4 4 8 9 8 6 0 12 -4 15 -8z
m-849 -170 c-6 -7 -43 18 -49 33 -4 12 2 10 23 -7 15 -13 27 -24 26 -26z
m-665 18 c0 -5 -7 -7 -15 -4 -8 4 -15 8 -15 10 0 2 7 4 15 4 8 0 15 -4 15 -10z
m248 -97 c5 -18 -23 -16 -39 3 -11 14 -10 15 11 12 13 -1 25 -9 28 -15z m-93
-3 c-3 -5 -12 -10 -18 -10 -7 0 -6 4 3 10 19 12 23 12 15 0z m65 -21 c0 -6 -4
-7 -10 -4 -5 3 -10 11 -10 16 0 6 5 7 10 4 6 -3 10 -11 10 -16z m203 -31 c28
-37 70 -118 62 -118 -18 0 -77 45 -69 52 5 6 -32 21 -86 35 l-35 10 43 19 c23
10 42 22 42 26 0 18 21 6 43 -24z m-61 -147 c14 -20 48 -23 60 -7 4 6 17 5 33
-2 14 -7 37 -12 51 -12 22 0 25 -4 24 -27 -3 -45 -1 -50 23 -57 14 -4 18 -9
10 -14 -8 -5 -6 -18 8 -46 10 -22 19 -41 19 -42 0 -5 -46 8 -68 19 -18 8 -25
8 -31 -1 -6 -10 -14 -8 -33 8 -15 11 -29 20 -33 20 -5 0 -14 8 -22 18 -14 16
-14 16 -9 -1 3 -10 6 -24 6 -32 0 -7 8 -15 18 -19 81 -28 102 -32 110 -24 13
13 44 -2 38 -19 -3 -8 -6 -19 -6 -24 0 -5 -9 -9 -20 -9 -11 0 -20 4 -20 9 0
13 -68 34 -91 28 -10 -3 -22 -1 -25 4 -3 5 -10 7 -15 4 -5 -4 -9 0 -9 9 0 18
-32 76 -42 76 -17 0 -7 40 10 41 16 1 16 2 0 6 -10 2 -18 9 -18 14 0 5 -10 23
-21 38 -15 20 -29 28 -45 26 -33 -3 -30 3 9 20 45 20 74 18 89 -4z m-462 -81
c8 -5 11 -12 8 -16 -10 -9 -38 3 -38 16 0 12 10 13 30 0z m403 -60 c5 -19 14
-38 20 -42 6 -3 10 -30 8 -62 -2 -45 1 -56 13 -56 9 0 16 -5 16 -12 0 -9 3 -9
12 0 7 7 21 12 31 12 13 0 17 5 13 15 -3 9 0 15 9 15 7 0 16 -8 20 -18 3 -11
17 -24 30 -30 21 -10 25 -19 25 -52 0 -29 -4 -40 -15 -40 -8 0 -15 4 -15 9 0
4 -12 6 -27 4 -16 -3 -24 -1 -18 4 14 11 11 51 -5 66 -10 10 -11 5 -5 -21 6
-31 5 -33 -17 -30 -12 2 -27 13 -33 26 -5 12 -15 22 -22 22 -7 0 -13 5 -13 11
0 5 -4 7 -10 4 -6 -4 -10 5 -10 20 0 27 -53 85 -77 85 -7 0 -13 5 -13 10 0 6
14 9 30 8 17 -1 30 -8 30 -14 0 -7 7 -14 15 -18 20 -7 19 18 -1 50 -10 15 -23
23 -32 19 -10 -4 -12 0 -8 11 3 8 6 22 6 31 0 29 34 8 43 -27z m-113 -126 c0
-7 -4 -16 -10 -19 -5 -3 -10 1 -10 9 0 9 -4 16 -9 16 -5 0 -11 7 -14 15 -5 12
-2 12 18 3 14 -6 25 -17 25 -24z m-87 -21 c-7 -2 -19 -2 -25 0 -7 3 -2 5 12 5
14 0 19 -2 13 -5z m327 -125 c55 -13 55 -13 46 -40 -5 -16 -19 -31 -30 -34
-12 -4 -27 -15 -34 -26 -18 -24 -32 -14 -32 23 0 21 -5 29 -17 29 -18 1 -63
32 -63 44 0 3 7 6 15 6 8 0 15 5 15 11 0 7 9 9 23 5 12 -3 47 -11 77 -18z
m1269 -192 c-2 -2 -17 -6 -34 -10 -22 -5 -26 -4 -15 4 14 9 59 15 49 6z"/>
<path d="M1723 1925 c0 -8 4 -12 9 -9 5 3 6 10 3 15 -9 13 -12 11 -12 -6z"/>
<path d="M1640 1829 c0 -5 5 -7 10 -4 6 3 10 8 10 11 0 2 -4 4 -10 4 -5 0 -10
-5 -10 -11z"/>
<path d="M388 1828 c9 -9 15 -9 24 0 9 9 7 12 -12 12 -19 0 -21 -3 -12 -12z"/>
<path d="M475 1780 c-3 -5 -1 -10 4 -10 6 0 11 5 11 10 0 6 -2 10 -4 10 -3 0
-8 -4 -11 -10z"/>
<path d="M420 1745 c0 -10 7 -12 30 -5 16 5 28 5 27 2 -2 -8 7 -12 24 -12 8 0
8 4 0 13 -15 19 -81 21 -81 2z"/>
<path d="M448 1713 c7 -3 16 -2 19 1 4 3 -2 6 -13 5 -11 0 -14 -3 -6 -6z"/>
<path d="M385 1630 c-3 -5 -1 -10 4 -10 6 0 11 5 11 10 0 6 -2 10 -4 10 -3 0
-8 -4 -11 -10z"/>
<path d="M1718 1424 c-5 -4 -8 -16 -8 -28 0 -14 3 -17 11 -9 6 6 9 19 7 28 -1
9 -6 13 -10 9z"/>
<path d="M1556 1204 c-4 -9 -4 -19 -1 -22 3 -3 5 0 5 6 0 6 8 9 18 6 10 -4 13
-2 7 3 -5 4 -13 12 -16 16 -4 4 -9 0 -13 -9z"/>
<path d="M650 660 c0 -5 7 -10 16 -10 8 0 12 5 9 10 -3 6 -10 10 -16 10 -5 0
-9 -4 -9 -10z"/>
<path d="M652 634 c-19 -8 -31 -10 -27 -4 3 5 2 10 -3 10 -5 0 -12 -8 -14 -17
-4 -14 2 -18 26 -18 62 -1 121 -10 129 -20 5 -6 7 -2 5 8 -2 10 -7 18 -13 19
-5 0 -16 9 -23 19 -15 22 -35 23 -80 3z"/>
<path d="M612 371 c7 -11 16 -17 20 -14 10 5 -10 33 -23 33 -5 0 -4 -9 3 -19z"/>
<path d="M610 270 c20 -13 40 -13 40 0 0 6 -12 10 -27 10 -22 0 -25 -2 -13
-10z"/>
<path d="M1575 2580 c-3 -5 -2 -10 4 -10 5 0 13 5 16 10 3 6 2 10 -4 10 -5 0
-13 -4 -16 -10z"/>
<path d="M1895 2580 c3 -5 8 -10 11 -10 2 0 4 5 4 10 0 6 -5 10 -11 10 -5 0
-7 -4 -4 -10z"/>
<path d="M239 2553 c-12 -15 -12 -16 4 -10 10 4 23 7 28 7 6 0 7 5 4 10 -9 15
-21 12 -36 -7z"/>
<path d="M1880 2559 c0 -5 9 -9 21 -9 11 0 17 -4 14 -10 -3 -5 -1 -10 4 -10 6
0 11 8 11 19 0 13 -7 19 -25 19 -14 0 -25 -4 -25 -9z"/>
<path d="M348 2549 c6 -7 12 -21 12 -30 0 -11 10 -18 28 -21 22 -3 27 0 28 19
1 17 -4 23 -18 23 -10 0 -29 5 -41 11 -18 9 -20 9 -9 -2z"/>
<path d="M765 2550 c-3 -5 -2 -10 4 -10 5 0 13 5 16 10 3 6 2 10 -4 10 -5 0
-13 -4 -16 -10z"/>
<path d="M1688 2553 c6 -2 18 -2 25 0 6 3 1 5 -13 5 -14 0 -19 -2 -12 -5z"/>
<path d="M63 2472 l-1 -67 13 42 c7 23 10 53 8 67 -9 46 -18 27 -20 -42z"/>
<path d="M495 2530 c3 -5 13 -10 21 -10 8 0 12 5 9 10 -3 6 -13 10 -21 10 -8
0 -12 -4 -9 -10z"/>
<path d="M1232 2526 c7 -8 15 -12 17 -11 5 6 -10 25 -20 25 -5 0 -4 -6 3 -14z"/>
<path d="M265 2520 c-3 -5 0 -19 8 -31 9 -13 17 -16 22 -10 3 6 1 11 -5 11 -7
0 -10 6 -7 13 2 6 10 11 16 9 7 -1 10 2 6 8 -8 13 -32 13 -40 0z"/>
<path d="M328 2504 c-5 -4 -8 -19 -8 -33 1 -23 2 -24 11 -8 11 19 9 53 -3 41z"/>
<path d="M0 2490 c0 -5 5 -10 11 -10 5 0 7 5 4 10 -3 6 -8 10 -11 10 -2 0 -4
-4 -4 -10z"/>
<path d="M260 2453 c1 -4 7 -19 15 -33 l14 -25 -3 30 c-2 16 -8 31 -15 33 -6
2 -11 0 -11 -5z"/>
<path d="M344 2428 c-7 -24 -7 -40 3 -58 12 -24 13 -23 13 18 0 35 3 42 20 42
11 0 20 5 20 10 0 6 -4 10 -9 10 -5 0 -16 2 -23 5 -10 4 -18 -5 -24 -27z"/>
<path d="M1946 2448 c3 -4 9 -6 14 -3 5 3 11 1 15 -5 9 -14 27 -12 23 3 -3 6
-17 12 -31 13 -14 1 -24 -3 -21 -8z"/>
<path d="M2010 2450 c0 -5 8 -10 17 -10 15 0 14 -2 -3 -14 -18 -14 -18 -15 -2
-21 10 -4 15 -11 12 -16 -3 -5 2 -6 10 -3 10 4 18 -1 22 -11 5 -13 9 -14 15
-4 6 10 11 10 24 -1 13 -11 18 -11 25 -1 5 9 10 10 14 2 10 -16 26 -14 26 4 0
8 -3 14 -7 14 -20 -3 -34 2 -28 10 7 12 -28 23 -49 15 -9 -3 -16 -10 -16 -16
0 -5 -5 -6 -11 -2 -7 4 -1 13 16 24 22 14 24 18 10 24 -11 4 -14 2 -10 -7 4
-6 0 -4 -8 6 -15 18 -57 24 -57 7z"/>
<path d="M230 2415 c0 -8 2 -15 4 -15 2 0 6 7 10 15 3 8 1 15 -4 15 -6 0 -10
-7 -10 -15z"/>
<path d="M580 2420 c8 -5 20 -10 25 -10 6 0 3 5 -5 10 -8 5 -19 10 -25 10 -5
0 -3 -5 5 -10z"/>
<path d="M534 2393 c2 -15 9 -29 17 -31 9 -2 10 0 4 5 -6 4 -10 18 -9 31 1 12
-2 22 -7 22 -4 0 -6 -12 -5 -27z"/>
<path d="M1221 2404 c0 -11 3 -14 6 -6 3 7 2 16 -1 19 -3 4 -6 -2 -5 -13z"/>
<path d="M1803 2409 c-6 -6 -9 -18 -6 -25 6 -17 43 -19 43 -3 0 6 7 8 16 5 9
-3 12 -2 8 5 -3 6 -15 9 -25 6 -21 -6 -26 8 -6 16 8 4 7 6 -3 6 -9 1 -21 -4
-27 -10z"/>
<path d="M142 2360 c0 -14 2 -19 5 -12 2 6 2 18 0 25 -3 6 -5 1 -5 -13z"/>
<path d="M385 2370 c-3 -6 1 -7 9 -4 18 7 21 14 7 14 -6 0 -13 -4 -16 -10z"/>
<path d="M220 2350 c0 -5 7 -10 16 -10 8 0 12 5 9 10 -3 6 -10 10 -16 10 -5 0
-9 -4 -9 -10z"/>
<path d="M384 2328 c0 -12 4 -14 18 -7 27 15 30 27 5 25 -14 0 -23 -7 -23 -18z"/>
<path d="M0 2320 c0 -6 16 -10 37 -10 43 0 41 5 -4 13 -19 4 -33 2 -33 -3z"/>
<path d="M2250 2271 c0 -14 51 -63 58 -56 2 2 -5 16 -17 31 -11 15 -21 23 -21
18 0 -5 -5 -2 -10 6 -8 12 -10 12 -10 1z"/>
<path d="M2127 2231 c3 -11 12 -22 20 -26 24 -9 24 -2 -2 23 -21 21 -23 21
-18 3z"/>
<path d="M360 2186 c6 -8 19 -12 27 -9 14 6 14 8 -3 14 -30 12 -37 10 -24 -5z"/>
<path d="M2214 2124 c8 -17 13 -34 10 -36 -2 -3 2 -18 11 -34 8 -16 15 -27 16
-24 5 32 4 48 -4 43 -6 -4 -8 0 -5 9 4 8 -5 28 -18 44 l-25 29 15 -31z"/>
<path d="M2330 2095 c0 -8 65 -32 106 -39 33 -6 43 -3 59 13 21 24 4 29 -18 6
-13 -13 -21 -13 -54 -1 -52 18 -93 27 -93 21z"/>
<path d="M2350 2060 c0 -13 18 -22 24 -11 3 5 -1 11 -9 15 -8 3 -15 1 -15 -4z"/>
<path d="M2486 2045 c-18 -14 -17 -15 25 -15 24 0 55 -3 69 -5 22 -5 22 -4 5
4 -11 5 -33 10 -50 10 -23 1 -27 4 -15 11 13 9 13 10 0 10 -8 -1 -24 -7 -34
-15z"/>
<path d="M2275 2010 c4 -6 11 -8 16 -5 14 9 11 15 -7 15 -8 0 -12 -5 -9 -10z"/>
<path d="M2475 2000 c17 -4 46 -8 65 -8 l35 0 -40 9 c-22 4 -51 8 -65 7 -23 0
-22 -1 5 -8z"/>
<path d="M2840 1940 c14 -4 43 -8 65 -8 l40 0 -40 9 c-22 4 -51 8 -65 7 l-25
0 25 -8z"/>
<path d="M2975 1923 c11 -3 24 -9 30 -14 11 -11 65 -12 65 -1 0 5 -6 9 -12 9
-7 0 -33 3 -58 5 -25 3 -36 3 -25 1z"/>
<path d="M2948 1883 c6 -2 18 -2 25 0 6 3 1 5 -13 5 -14 0 -19 -2 -12 -5z"/>
<path d="M2938 1773 c6 -2 18 -2 25 0 6 3 1 5 -13 5 -14 0 -19 -2 -12 -5z"/>
<path d="M188 1693 c7 -3 16 -2 19 1 4 3 -2 6 -13 5 -11 0 -14 -3 -6 -6z"/>
<path d="M2370 1671 c-27 -26 -44 -34 -75 -36 -22 0 -47 -5 -54 -10 -11 -6
-13 -4 -8 11 7 18 7 18 -8 0 -17 -22 -6 -35 30 -37 17 -1 16 -2 -5 -9 -22 -7
-21 -8 13 -9 69 -2 152 56 145 101 -3 23 -4 22 -38 -11z"/>
<path d="M131 1670 c8 -5 24 -7 36 -3 13 3 23 1 23 -4 0 -5 35 -9 77 -10 46
-1 72 2 63 7 -20 11 -217 21 -199 10z"/>
<path d="M151 1639 c17 -11 69 -12 69 -1 0 4 -19 8 -42 9 -28 1 -37 -2 -27 -8z"/>
<path d="M255 1630 c27 -12 43 -12 25 0 -8 5 -22 9 -30 9 -10 0 -8 -3 5 -9z"/>
<path d="M112 1608 c3 -7 13 -13 24 -14 16 -1 16 0 1 3 -9 3 -15 9 -12 14 4 5
1 9 -5 9 -7 0 -10 -6 -8 -12z"/>
<path d="M183 1613 c9 -2 23 -2 30 0 6 3 -1 5 -18 5 -16 0 -22 -2 -12 -5z"/>
<path d="M2190 1606 c0 -2 8 -10 18 -17 15 -13 16 -12 3 4 -13 16 -21 21 -21
13z"/>
<path d="M53 1583 c0 -17 12 -17 27 1 9 12 8 15 -8 13 -10 0 -19 -7 -19 -14z"/>
<path d="M178 1583 c7 -3 16 -2 19 1 4 3 -2 6 -13 5 -11 0 -14 -3 -6 -6z"/>
<path d="M40 1559 c-19 -3 -29 -7 -22 -8 6 0 12 -5 12 -11 0 -5 -7 -6 -17 -3
-11 4 -14 3 -9 -5 4 -7 16 -12 27 -12 10 0 19 -4 19 -9 0 -5 8 -7 18 -4 12 3
18 13 18 28 -2 31 -4 32 -46 24z"/>
<path d="M178 1563 c7 -3 16 -2 19 1 4 3 -2 6 -13 5 -11 0 -14 -3 -6 -6z"/>
<path d="M275 1554 c28 -7 55 -12 60 -10 6 3 2 5 -7 5 -10 1 -18 6 -18 11 0 6
-19 10 -42 9 l-43 -1 50 -14z"/>
<path d="M120 1546 c0 -2 7 -6 15 -10 8 -3 15 -1 15 4 0 6 -7 10 -15 10 -8 0
-15 -2 -15 -4z"/>
<path d="M159 1507 c6 -6 11 -19 11 -28 0 -9 9 -19 20 -22 11 -3 20 -1 20 4 0
5 -4 9 -9 9 -5 0 -11 9 -14 20 -5 18 -2 20 26 15 18 -3 46 -1 62 4 24 7 14 9
-48 8 -56 0 -75 -3 -68 -10z"/>
<path d="M20 1490 c0 -6 8 -10 18 -10 14 -1 13 -4 -8 -22 -17 -15 -19 -19 -7
-15 11 4 28 0 40 -8 26 -18 53 -19 63 -3 5 8 2 9 -10 5 -10 -4 -27 -1 -38 7
l-20 14 21 4 c12 2 18 7 13 14 -9 14 -72 26 -72 14z"/>
<path d="M110 1496 c0 -2 11 -6 25 -8 13 -3 22 -1 19 3 -5 9 -44 13 -44 5z"/>
<path d="M220 1469 c0 -7 11 -9 30 -6 16 4 32 2 35 -3 3 -6 16 -9 28 -9 20 1
20 2 2 6 -11 3 -24 9 -29 14 -14 13 -66 11 -66 -2z"/>
<path d="M312 1435 c10 -10 68 -14 68 -4 0 5 -16 9 -37 9 -20 0 -34 -2 -31 -5z"/>
<path d="M18 1413 c7 -3 16 -2 19 1 4 3 -2 6 -13 5 -11 0 -14 -3 -6 -6z"/>
<path d="M10 1388 c0 -4 13 -8 29 -8 16 0 31 -6 34 -12 3 -10 7 -10 19 0 9 7
22 10 30 7 8 -3 26 0 41 8 24 13 19 14 -63 14 -50 0 -90 -4 -90 -9z"/>
<path d="M168 1373 c7 -3 16 -2 19 1 4 3 -2 6 -13 5 -11 0 -14 -3 -6 -6z"/>
<path d="M0 1362 c0 -5 7 -9 15 -9 8 0 12 4 9 9 -3 4 -9 8 -15 8 -5 0 -9 -4
-9 -8z"/>
<path d="M110 1360 c0 -5 5 -10 11 -10 5 0 7 5 4 10 -3 6 -8 10 -11 10 -2 0
-4 -4 -4 -10z"/>
<path d="M100 1330 c-13 -8 -12 -10 3 -10 9 0 17 5 17 10 0 12 -1 12 -20 0z"/>
<path d="M40 1300 c0 -5 5 -10 11 -10 5 0 7 5 4 10 -3 6 -8 10 -11 10 -2 0 -4
-4 -4 -10z"/>
<path d="M2900 1288 c0 -18 57 -46 110 -54 33 -5 40 -4 40 9 0 24 -38 45 -97
53 -43 5 -53 4 -53 -8z"/>
<path d="M18 1243 c6 -2 18 -2 25 0 6 3 1 5 -13 5 -14 0 -19 -2 -12 -5z"/>
<path d="M68 1233 c6 -2 18 -2 25 0 6 3 1 5 -13 5 -14 0 -19 -2 -12 -5z"/>
<path d="M198 1223 c7 -3 16 -2 19 1 4 3 -2 6 -13 5 -11 0 -14 -3 -6 -6z"/>
<path d="M2554 1213 c3 -8 6 -17 6 -19 0 -2 7 -4 15 -4 8 0 15 -7 15 -15 0
-10 10 -15 26 -15 22 0 24 3 15 14 -10 12 -8 13 8 9 32 -8 25 4 -11 21 -54 23
-81 27 -74 9z"/>
<path d="M0 1200 c0 -5 5 -10 11 -10 5 0 7 5 4 10 -3 6 -8 10 -11 10 -2 0 -4
-4 -4 -10z"/>
<path d="M458 1203 c7 -3 16 -2 19 1 4 3 -2 6 -13 5 -11 0 -14 -3 -6 -6z"/>
<path d="M2237 1194 c-15 -15 -6 -44 18 -60 20 -13 30 -14 60 -4 19 6 35 15
35 18 0 4 -21 16 -47 27 -26 11 -50 21 -53 23 -4 1 -9 -1 -13 -4z"/>
<path d="M40 1176 c4 -4 16 -4 26 2 16 9 14 10 -8 9 -15 -1 -23 -6 -18 -11z"/>
<path d="M2464 1180 c22 -4 45 -15 51 -24 11 -14 25 -12 25 4 0 12 -51 30 -83
29 -31 -1 -31 -2 7 -9z"/>
<path d="M500 1170 c0 -5 5 -10 11 -10 5 0 7 5 4 10 -3 6 -8 10 -11 10 -2 0
-4 -4 -4 -10z"/>
<path d="M2407 1173 c-19 -18 -5 -33 32 -33 25 0 41 -5 45 -15 3 -8 15 -15 28
-15 19 0 20 2 8 14 -21 19 -78 36 -97 29 -12 -5 -15 -2 -10 10 7 18 5 21 -6
10z"/>
<path d="M5 1150 c-3 -6 1 -7 9 -4 18 7 21 14 7 14 -6 0 -13 -4 -16 -10z"/>
<path d="M160 1149 c0 -5 5 -9 11 -9 5 0 7 -6 3 -12 -5 -8 -1 -8 12 2 10 8 20
15 22 16 2 1 -9 4 -23 6 -14 3 -25 1 -25 -3z"/>
<path d="M236 1146 c6 -15 37 -32 74 -40 l25 -6 -25 12 c-14 7 -27 15 -30 18
-3 3 -15 11 -27 17 -18 10 -21 10 -17 -1z"/>
<path d="M2065 1149 c-27 -3 -54 -4 -58 -2 -11 6 -67 -17 -67 -28 0 -13 43
-39 63 -39 17 0 17 2 6 16 -11 13 -9 14 17 8 16 -4 38 -13 49 -20 23 -16 69
-19 60 -4 -3 6 -1 10 4 10 6 0 11 -9 11 -20 0 -13 9 -22 28 -26 15 -3 35 -8
45 -11 22 -6 35 26 16 38 -8 5 -18 9 -24 9 -5 -1 -2 -5 8 -11 9 -5 17 -15 17
-21 0 -7 -5 -6 -15 2 -8 6 -19 9 -25 5 -6 -4 -10 7 -10 28 0 53 -45 77 -125
66z m45 -59 c13 -8 13 -10 -2 -10 -9 0 -20 5 -23 10 -8 13 5 13 25 0z"/>
<path d="M2974 1139 c-3 -6 0 -17 7 -24 16 -14 80 -37 87 -30 10 10 -9 35 -27
35 -10 0 -21 7 -25 15 -6 17 -32 20 -42 4z"/>
<path d="M0 1113 c0 -13 5 -23 10 -23 13 0 13 11 0 30 -8 12 -10 11 -10 -7z"/>
<path d="M32 1118 c2 -6 11 -13 19 -16 12 -3 12 -2 0 6 -11 8 -8 11 15 15 28
4 28 4 -4 6 -22 0 -32 -3 -30 -11z"/>
<path d="M448 1123 c7 -3 16 -2 19 1 4 3 -2 6 -13 5 -11 0 -14 -3 -6 -6z"/>
<path d="M2550 1121 c0 -6 11 -13 25 -17 23 -6 23 -7 9 -29 -14 -22 -21 -42
-31 -97 -5 -25 -2 -28 22 -28 27 0 27 1 11 25 -20 31 -20 37 2 32 9 -3 34 -8
55 -12 22 -3 37 -12 37 -20 0 -8 5 -17 10 -20 18 -11 10 21 -10 43 -14 15 -33
22 -58 22 l-37 0 29 15 c33 17 39 19 32 6 -4 -5 3 -7 14 -4 36 10 18 63 -21
63 -10 0 -19 4 -21 10 -5 14 -68 25 -68 11z"/>
<path d="M2846 1119 c4 -7 -3 -10 -17 -9 -49 4 -53 -1 -19 -22 l35 -23 -28 -3
c-16 -2 -34 2 -42 8 -11 9 -18 7 -35 -10 -17 -17 -24 -19 -36 -9 -20 17 -17
-5 4 -23 25 -22 66 -43 58 -29 -10 16 6 13 29 -6 16 -13 17 -15 3 -10 -11 4
-18 1 -18 -7 0 -15 46 -57 54 -49 3 3 -5 14 -17 24 -20 16 -20 18 -4 19 11 0
15 4 11 12 -5 8 0 9 17 5 13 -4 32 -7 42 -7 9 0 17 -7 17 -15 0 -8 4 -15 9
-15 5 0 16 -3 25 -6 9 -3 16 -1 16 4 0 15 -55 42 -124 61 -33 9 -61 22 -64 30
-3 8 -1 11 4 8 19 -11 100 -16 129 -9 l30 9 -28 7 c-39 9 -29 30 19 37 21 3
31 7 21 8 -10 0 -25 8 -33 16 -18 17 -69 21 -58 4z"/>
<path d="M100 1116 c0 -2 9 -6 20 -9 11 -3 18 -1 14 4 -5 9 -34 13 -34 5z"/>
<path d="M426 1101 c-3 -4 5 -13 18 -19 18 -8 22 -16 19 -36 -3 -14 -9 -26
-14 -26 -5 0 -9 -4 -9 -10 0 -5 7 -10 15 -10 9 0 15 10 15 26 0 15 4 23 10 19
7 -4 9 3 5 22 -5 25 -4 26 4 6 6 -13 16 -23 22 -23 13 0 -3 25 -30 48 -17 14
-47 16 -55 3z"/>
<path d="M518 1103 c7 -3 16 -2 19 1 4 3 -2 6 -13 5 -11 0 -14 -3 -6 -6z"/>
<path d="M2400 1100 c0 -20 45 -80 60 -80 13 0 13 1 0 10 -12 8 -9 10 13 10
15 0 27 4 27 10 0 5 -12 13 -27 16 -16 4 -34 16 -41 26 -14 20 -32 24 -32 8z"/>
<path d="M360 1090 c0 -5 5 -10 11 -10 5 0 7 5 4 10 -3 6 -8 10 -11 10 -2 0
-4 -4 -4 -10z"/>
<path d="M7 1073 c-4 -3 -7 -35 -7 -70 0 -51 3 -63 16 -63 9 0 27 -9 41 -20
28 -21 53 -26 53 -10 0 6 -9 10 -19 10 -11 0 -23 5 -27 11 -5 9 1 10 22 5 16
-4 31 -12 32 -17 5 -13 52 -11 52 2 0 5 -5 7 -12 3 -7 -5 -9 0 -6 14 5 17 0
24 -28 34 -19 6 -34 18 -34 25 0 23 -2 27 -22 56 -18 25 -47 35 -61 20z"/>
<path d="M1950 1070 c-7 -4 1 -12 22 -21 18 -8 36 -14 39 -14 3 0 13 -8 23
-17 10 -10 22 -18 27 -18 16 0 10 30 -8 37 -10 3 -25 11 -33 18 -20 17 -55 24
-70 15z"/>
<path d="M2040 1070 c8 -5 20 -10 25 -10 6 0 3 5 -5 10 -8 5 -19 10 -25 10 -5
0 -3 -5 5 -10z"/>
<path d="M2327 1050 c-4 -15 0 -20 16 -20 18 0 19 -2 7 -10 -11 -7 -6 -8 18
-4 20 4 32 3 32 -4 0 -6 7 -9 16 -5 11 4 4 13 -28 34 -51 34 -54 35 -61 9z"/>
<path d="M538 1043 c7 -3 16 -2 19 1 4 3 -2 6 -13 5 -11 0 -14 -3 -6 -6z"/>
<path d="M2093 1011 c-18 -16 -33 -31 -33 -34 0 -11 66 -27 115 -27 39 0 54 4
59 16 9 25 -10 49 -41 52 -15 1 -29 7 -31 12 -6 18 -37 10 -69 -19z m110 -22
c18 0 25 -3 17 -6 -8 -3 -18 -10 -21 -15 -8 -12 -59 8 -59 23 0 6 7 8 16 5 9
-3 30 -6 47 -7z"/>
<path d="M2957 1009 c-4 -16 -11 -19 -29 -14 -18 5 -20 4 -8 -4 14 -10 137 -7
147 3 3 3 3 13 -1 22 -5 13 -9 14 -21 4 -11 -9 -22 -9 -46 -1 -18 6 -33 11
-34 11 -2 0 -5 -9 -8 -21z"/>
<path d="M128 993 c7 -3 16 -2 19 1 4 3 -2 6 -13 5 -11 0 -14 -3 -6 -6z"/>
<path d="M2388 981 c-14 -11 -37 -18 -55 -17 -18 1 -29 -2 -27 -6 3 -5 -5 -7
-18 -5 -12 2 -17 2 -10 0 6 -3 12 -9 12 -14 0 -5 14 -9 30 -9 20 0 39 -9 54
-25 13 -14 29 -25 37 -25 7 0 23 -12 34 -26 19 -24 25 -26 61 -19 36 7 37 8
14 15 l-25 8 26 1 c14 1 30 -4 37 -11 9 -9 12 -9 12 1 0 14 30 12 90 -5 22 -7
24 -6 11 9 -7 9 -18 17 -23 17 -11 0 -58 50 -58 61 0 5 -7 9 -17 9 -15 0 -15
-1 0 -18 21 -23 22 -42 1 -42 -24 0 -54 19 -54 35 0 8 -5 15 -11 15 -6 0 -9 5
-7 12 3 8 -72 57 -88 58 -1 0 -12 -9 -26 -19z"/>
<path d="M2706 985 c4 -8 18 -15 33 -15 l26 1 -25 14 c-32 18 -41 18 -34 0z"/>
<path d="M2030 980 c-13 -8 -12 -10 3 -10 9 0 17 5 17 10 0 12 -1 12 -20 0z"/>
<path d="M3035 970 l-30 -6 30 -6 c32 -7 39 -5 34 9 -2 5 -17 6 -34 3z"/>
<path d="M298 963 c7 -3 16 -2 19 1 4 3 -2 6 -13 5 -11 0 -14 -3 -6 -6z"/>
<path d="M188 953 c6 -2 18 -2 25 0 6 3 1 5 -13 5 -14 0 -19 -2 -12 -5z"/>
<path d="M2060 945 c14 -8 32 -14 40 -14 8 0 0 6 -19 14 -42 19 -54 19 -21 0z"/>
<path d="M2860 945 c0 -9 -13 -30 -30 -47 -35 -34 -37 -44 -12 -51 9 -2 26 -8
36 -13 14 -5 17 -4 12 4 -7 12 4 16 34 13 13 -2 13 -1 0 8 -8 5 -15 20 -15 33
-1 13 -5 30 -10 38 -6 9 -4 11 5 5 8 -5 11 -3 8 5 -7 21 -28 24 -28 5z"/>
<path d="M2762 930 c7 -11 18 -20 25 -20 22 0 14 16 -12 28 -23 11 -24 10 -13
-8z"/>
<path d="M2980 940 c-18 -11 -15 -14 44 -33 41 -14 46 -14 36 -2 -10 12 -10
15 1 16 15 1 -39 28 -56 28 -5 1 -17 -3 -25 -9z"/>
<path d="M2636 925 c4 -11 21 -15 56 -15 44 0 49 2 38 15 -8 9 -29 15 -56 15
-34 0 -42 -3 -38 -15z"/>
<path d="M1992 905 c6 -14 17 -25 25 -25 8 0 6 8 -9 25 -12 14 -23 25 -25 25
-1 0 3 -11 9 -25z"/>
<path d="M2930 926 c0 -2 7 -7 16 -10 8 -3 12 -2 9 4 -6 10 -25 14 -25 6z"/>
<path d="M1924 863 c1 -32 7 -58 13 -60 7 -3 10 -10 7 -17 -3 -8 2 -16 10 -19
9 -4 16 -18 16 -32 0 -15 -4 -23 -10 -20 -6 4 -7 -2 -1 -17 6 -17 16 -23 37
-23 44 0 97 -16 87 -26 -4 -4 -26 -4 -48 1 -25 6 -44 5 -49 0 -7 -7 6 -10 33
-10 37 0 42 -2 32 -14 -10 -12 -5 -16 31 -21 63 -9 80 -9 111 -1 34 8 31 31
-4 32 -39 2 -76 21 -81 42 -4 13 -18 22 -44 27 -58 10 -78 23 -63 41 19 23 54
16 89 -16 21 -20 39 -29 51 -25 22 7 74 -18 87 -42 9 -15 16 -16 61 -5 28 6
59 9 68 5 16 -6 16 -5 4 10 -19 24 5 23 33 0 16 -13 15 -11 -3 9 -20 24 -22
30 -11 44 12 13 12 15 -1 13 -7 -1 -21 0 -29 4 -41 15 -83 20 -170 18 -65 -2
-104 2 -122 11 -39 21 -116 81 -122 96 -3 7 -2 11 3 7 5 -3 17 -2 26 1 16 6
16 8 1 16 -9 5 -21 6 -26 3 -6 -3 -7 1 -4 9 3 9 2 16 -4 16 -5 0 -9 -25 -8
-57z"/>
<path d="M2277 904 c3 -8 19 -14 37 -14 18 0 37 -5 44 -12 7 -7 12 -8 12 -2 0
12 -45 35 -77 39 -15 2 -20 -1 -16 -11z"/>
<path d="M2173 898 c-16 -8 -23 -20 -23 -39 0 -15 -5 -31 -10 -34 -6 -4 -7
-13 -1 -23 7 -13 24 -18 58 -20 26 -1 78 -7 116 -13 37 -7 69 -10 72 -7 3 3
-1 22 -8 43 -14 41 -62 75 -104 75 -13 0 -22 5 -20 13 3 16 -51 20 -80 5z"/>
<path d="M200 885 c0 -8 5 -16 10 -16 33 -4 70 -20 70 -29 0 -5 19 -10 43 -12
48 -3 55 -20 11 -29 -22 -5 -15 -7 26 -8 31 0 60 3 65 8 6 5 19 11 30 14 15 4
14 5 -7 6 -15 0 -29 -3 -33 -9 -3 -5 -27 4 -53 21 -25 16 -52 27 -59 25 -7 -3
-13 -1 -13 4 0 6 8 10 18 11 9 0 -8 7 -38 14 -70 18 -70 18 -70 0z"/>
<path d="M2922 880 c13 -20 28 -27 28 -12 0 4 -9 13 -20 20 -19 12 -20 11 -8
-8z"/>
<path d="M0 870 c0 -22 16 -43 28 -39 7 3 3 14 -8 29 -13 17 -20 20 -20 10z"/>
<path d="M135 870 c11 -5 27 -9 35 -9 13 -1 13 0 0 9 -8 5 -24 9 -35 9 l-20 0
20 -9z"/>
<path d="M2987 873 c-3 -3 -2 -16 3 -29 6 -15 6 -24 0 -24 -6 0 -10 5 -10 10
0 13 -37 13 -46 -1 -4 -8 -9 -8 -17 0 -14 14 -37 14 -37 1 0 -5 7 -10 15 -10
8 0 15 -4 15 -9 0 -6 -16 -3 -35 5 -42 17 -48 18 -39 2 5 -8 2 -9 -12 -3 -10
4 -30 10 -44 12 -14 3 -29 11 -35 17 -19 23 -43 26 -48 5 -3 -10 -1 -19 4 -19
4 0 13 -8 18 -18 8 -15 6 -18 -12 -17 -12 0 -34 8 -48 18 -18 12 -41 17 -72
15 -25 -2 -43 -5 -41 -7 2 -2 -1 -10 -7 -17 -17 -21 122 -39 196 -26 39 8 63
8 69 2 14 -14 38 -12 93 6 33 11 48 13 51 5 2 -6 13 -11 25 -11 16 0 18 3 9 9
-10 6 -7 12 12 24 14 10 29 17 34 17 5 0 9 6 9 14 0 15 -41 39 -50 29z"/>
<path d="M2394 854 c3 -9 6 -20 6 -25 0 -5 11 -9 25 -9 25 0 25 1 9 25 -18 28
-50 35 -40 9z"/>
<path d="M100 823 c0 -7 5 -15 10 -18 6 -3 11 -16 11 -28 1 -17 2 -18 6 -5 2
10 -3 28 -11 40 -9 12 -16 17 -16 11z"/>
<path d="M2407 771 c-4 -18 1 -32 16 -46 38 -36 69 -53 89 -47 15 4 17 7 6 13
-10 7 -10 9 2 10 8 1 -5 5 -30 8 -29 4 -45 11 -45 20 0 8 -9 17 -20 22 -15 5
-16 8 -4 8 14 1 54 -15 98 -38 8 -4 20 -25 28 -46 13 -39 9 -61 -7 -35 -8 13
-10 13 -10 -1 0 -26 55 -59 101 -59 l41 0 -40 33 c-22 17 -45 41 -52 51 -10
17 -9 18 8 14 15 -4 19 -2 15 8 -3 8 -15 14 -27 14 -14 0 -28 10 -36 25 -7 14
-20 25 -27 25 -8 0 -12 4 -9 8 3 5 -17 15 -44 24 l-48 16 -5 -27z"/>
<path d="M3035 759 c-16 -10 -37 -17 -45 -15 -8 3 -39 8 -67 11 -50 6 -53 6
-53 -15 0 -13 8 -24 20 -27 11 -3 17 -9 14 -14 -3 -5 4 -9 14 -9 11 0 25 -6
31 -13 6 -8 27 -14 47 -15 20 -1 45 -4 55 -7 16 -6 19 -1 19 34 0 37 -2 40
-32 44 l-33 4 33 1 c25 2 32 6 32 22 0 11 -1 20 -2 19 -2 0 -16 -9 -33 -20z
m-42 -39 c4 -3 5 -15 1 -24 -6 -16 -8 -16 -16 -2 -5 8 -24 18 -43 22 -20 3
-37 10 -40 14 -6 9 87 0 98 -10z"/>
<path d="M175 750 c3 -5 11 -10 16 -10 6 0 7 5 4 10 -3 6 -11 10 -16 10 -6 0
-7 -4 -4 -10z"/>
<path d="M2650 739 c15 -28 5 -36 -18 -16 -10 10 -32 17 -48 17 -25 -1 -21 -5
31 -30 57 -27 59 -29 33 -35 -37 -9 -25 -26 12 -18 17 3 36 1 42 -4 7 -6 30
-13 51 -17 28 -5 37 -4 35 6 -2 9 15 15 55 18 l59 5 -25 24 c-14 13 -32 21
-39 18 -9 -4 -7 -6 5 -6 9 -1 17 -8 17 -16 0 -8 -3 -15 -7 -15 -15 1 -43 27
-36 33 11 11 -6 8 -27 -5 -15 -10 -22 -10 -32 0 -15 15 -17 44 -3 55 6 4 -10
6 -35 5 -25 -2 -48 -7 -52 -13 -5 -6 -8 -5 -8 3 0 6 -5 12 -10 12 -7 0 -7 -7
0 -21z"/>
<path d="M2800 746 c0 -2 7 -7 16 -10 8 -3 12 -2 9 4 -6 10 -25 14 -25 6z"/>
<path d="M340 730 c0 -5 5 -10 11 -10 5 0 7 5 4 10 -3 6 -8 10 -11 10 -2 0 -4
-4 -4 -10z"/>
<path d="M2770 730 c0 -5 5 -10 11 -10 5 0 7 5 4 10 -3 6 -8 10 -11 10 -2 0
-4 -4 -4 -10z"/>
<path d="M10 635 c0 -20 17 -28 23 -11 3 8 -1 17 -9 20 -8 3 -14 -1 -14 -9z"/>
<path d="M2418 638 c12 -6 22 -17 22 -25 0 -7 21 -23 46 -33 39 -17 53 -40 23
-40 -6 0 -34 -20 -64 -44 -51 -41 -52 -44 -32 -53 12 -5 44 -11 71 -12 27 -1
58 -7 70 -11 17 -7 13 -9 -19 -10 l-40 -1 40 -21 40 -22 -32 -7 c-39 -8 -59
-23 -66 -48 -5 -20 13 -26 117 -40 28 -3 51 -12 54 -20 3 -9 -1 -11 -17 -6
-11 3 -28 2 -37 -3 -15 -8 -15 -10 0 -15 9 -4 16 -3 16 2 0 4 12 6 27 3 25 -5
24 -6 -17 -22 l-44 -17 41 -21 c22 -12 49 -32 59 -45 11 -14 32 -28 48 -31
l30 -7 -25 21 c-21 19 -18 18 23 -4 26 -14 54 -26 63 -26 8 0 26 -6 38 -14 12
-7 39 -16 61 -19 36 -6 38 -5 34 18 -4 21 -2 23 13 15 24 -13 31 -12 24 3 -4
6 1 3 9 -7 9 -11 16 -14 16 -7 0 6 6 11 13 10 42 -5 48 0 45 43 -3 38 -6 43
-37 51 -37 9 -91 45 -91 60 0 10 65 4 108 -9 l22 -6 0 175 0 176 -29 20 c-28
20 -118 44 -132 35 -4 -2 -12 3 -19 11 -18 22 -32 18 -28 -7 2 -17 -4 -23 -32
-31 -19 -5 -39 -13 -45 -18 -5 -5 -17 -9 -28 -9 -20 0 -87 -57 -87 -75 0 -9
-45 -35 -61 -35 -9 0 -24 59 -20 78 2 14 -15 16 -24 2 -3 -5 -13 -10 -21 -10
-20 0 -17 20 4 20 9 1 -9 14 -40 31 -63 32 -73 49 -31 49 40 0 24 6 -32 13
-41 5 -46 4 -27 -5z m200 -243 c-3 -3 -9 2 -12 12 -6 14 -5 15 5 6 7 -7 10
-15 7 -18z m223 -117 c53 -21 139 -98 139 -125 0 -7 4 -13 8 -13 5 0 19 -9 32
-20 27 -23 25 -24 -19 -9 -19 7 -31 18 -31 29 0 26 -26 45 -34 24 -3 -9 -3
-20 0 -25 3 -5 -8 -8 -26 -7 -36 3 -74 34 -66 54 3 9 -1 14 -12 14 -14 0 -15
2 -2 10 11 7 9 11 -13 19 -15 6 -27 18 -27 27 0 12 -6 14 -30 9 -22 -5 -35 -1
-52 14 l-22 21 51 0 c28 0 74 -9 104 -22z m-64 -44 c-3 -3 -12 -4 -19 -1 -8 3
-5 6 6 6 11 1 17 -2 13 -5z m143 -135 c0 -6 -4 -7 -10 -4 -5 3 -10 11 -10 16
0 6 5 7 10 4 6 -3 10 -11 10 -16z m0 -29 c0 -5 -6 -10 -14 -10 -8 0 -18 5 -21
10 -3 6 3 10 14 10 12 0 21 -4 21 -10z"/>
<path d="M2667 620 c11 -19 25 -30 39 -30 12 0 31 -3 41 -7 16 -6 16 -5 4 10
-7 9 -27 17 -43 17 -25 0 -28 3 -23 20 5 16 2 20 -15 20 -21 0 -21 -1 -3 -30z"/>
<path d="M2970 640 c16 -10 87 -14 77 -4 -3 3 -25 8 -49 10 -30 3 -39 1 -28
-6z"/>
<path d="M50 620 c0 -5 5 -10 11 -10 5 0 7 5 4 10 -3 6 -8 10 -11 10 -2 0 -4
-4 -4 -10z"/>
<path d="M2805 620 c6 -10 -7 -14 -35 -10 -10 1 -12 -2 -5 -9 14 -14 55 -2 55
15 0 8 -5 14 -11 14 -5 0 -7 -4 -4 -10z"/>
<path d="M57 583 c-12 -11 -8 -23 8 -23 8 0 15 7 15 15 0 16 -12 20 -23 8z"/>
<path d="M2 545 c-1 -14 2 -24 7 -22 5 1 17 -7 27 -19 17 -18 23 -19 48 -9
l29 12 -29 7 c-16 4 -40 18 -54 32 l-26 24 -2 -25z"/>
<path d="M2670 559 c0 -5 5 -7 10 -4 6 3 10 8 10 11 0 2 -4 4 -10 4 -5 0 -10
-5 -10 -11z"/>
<path d="M345 550 c-3 -5 1 -10 10 -10 9 0 13 5 10 10 -3 6 -8 10 -10 10 -2 0
-7 -4 -10 -10z"/>
<path d="M163 502 c-34 -5 -32 -58 2 -74 32 -14 45 -3 19 17 -17 13 -14 14 31
8 28 -3 48 -3 45 0 -20 22 -79 52 -97 49z"/>
<path d="M2090 502 c0 -14 64 -69 91 -77 17 -6 19 -9 8 -16 -8 -5 -9 -9 -4 -9
6 0 34 -22 64 -50 52 -49 77 -62 69 -38 -2 6 -20 19 -38 30 -19 10 -28 18 -20
18 12 1 11 3 -2 11 -10 5 -18 14 -18 20 0 5 11 2 24 -6 16 -11 30 -13 47 -7
13 5 35 5 49 1 14 -4 41 -7 60 -7 19 0 27 2 18 5 -9 2 -20 13 -23 24 -4 10
-12 19 -19 19 -7 0 -21 9 -31 20 -10 11 -28 20 -39 19 -15 0 -16 -2 -6 -6 22
-8 50 -34 50 -47 0 -7 -3 -7 -8 -1 -11 16 -52 14 -52 -3 0 -22 -25 -8 -28 17
-3 20 -8 22 -42 16 -21 -4 -41 -2 -44 3 -4 6 3 8 16 5 22 -4 22 -4 3 8 -11 7
-25 20 -32 28 -11 14 -12 14 -13 -1 0 -25 -13 -22 -49 8 -17 14 -31 21 -31 16z"/>
<path d="M28 445 c-24 -32 -23 -35 11 -32 16 1 27 4 25 6 -2 2 4 10 14 18 15
12 14 13 -11 7 -22 -5 -26 -3 -21 10 9 23 2 19 -18 -9z"/>
<path d="M2146 405 c52 -69 66 -96 73 -144 l6 -46 22 22 c20 20 21 26 11 50
-18 41 -41 70 -95 116 l-48 42 31 -40z"/>
<path d="M213 404 c11 -11 68 -14 62 -4 -3 6 -20 10 -37 10 -17 0 -29 -3 -25
-6z"/>
<path d="M157 389 c7 -7 15 -10 18 -7 3 3 -2 9 -12 12 -14 6 -15 5 -6 -5z"/>
<path d="M0 334 c0 -44 4 -54 26 -70 14 -10 32 -25 39 -31 8 -7 22 -13 32 -14
10 0 13 -3 6 -6 -9 -3 -9 -11 3 -29 15 -23 15 -24 -7 -32 -23 -9 -22 -10 12
-26 20 -9 42 -28 49 -42 14 -25 30 -28 38 -6 2 7 -3 12 -12 12 -9 0 -16 5 -16
10 0 6 11 10 25 10 l25 0 -22 45 c-17 35 -27 45 -46 45 -17 0 -27 8 -35 30 -9
25 -17 30 -43 30 -30 0 -33 3 -43 48 -18 75 -31 85 -31 26z"/>
<path d="M384 358 c3 -7 9 -21 12 -30 7 -19 34 -25 34 -8 0 6 -4 10 -9 10 -5
0 -13 9 -16 20 -3 11 -11 20 -17 20 -5 0 -7 -6 -4 -12z"/>
<path d="M171 343 c-1 -29 -11 -53 -22 -53 -4 0 -17 9 -27 20 l-19 21 -6 -21
c-4 -15 0 -20 13 -20 10 0 20 -7 24 -15 3 -9 19 -15 41 -15 31 0 34 2 25 18
-5 9 -14 33 -19 52 -6 23 -10 28 -10 13z"/>
<path d="M245 341 c3 -5 19 -12 35 -16 28 -6 35 -15 31 -39 -1 -5 7 -6 19 -3
11 3 23 1 26 -4 3 -5 11 -9 19 -9 11 0 10 6 -2 33 -9 17 -21 35 -27 39 -16 11
-108 10 -101 -1z"/>
<path d="M240 296 c0 -8 9 -18 21 -21 31 -10 33 0 4 19 -21 14 -25 14 -25 2z"/>
<path d="M2370 308 c0 -2 9 -11 20 -21 11 -9 20 -13 20 -7 0 5 -9 14 -20 20
-11 6 -20 9 -20 8z"/>
<path d="M455 280 c10 -11 22 -17 28 -13 8 5 7 8 -1 11 -7 2 -10 8 -6 13 3 5
-5 9 -17 9 -21 0 -22 -1 -4 -20z"/>
<path d="M2490 270 c8 -5 22 -10 30 -10 13 0 13 1 0 10 -8 5 -22 10 -30 10
-13 0 -13 -1 0 -10z"/>
<path d="M2379 253 c29 -20 95 -28 68 -8 -9 7 -14 15 -10 18 3 4 1 7 -5 7 -7
0 -12 -7 -12 -16 0 -14 -2 -14 -22 0 -12 9 -27 16 -32 16 -6 0 0 -8 13 -17z"/>
<path d="M440 250 c0 -6 7 -10 15 -10 8 0 15 2 15 4 0 2 -7 6 -15 10 -8 3 -15
1 -15 -4z"/>
<path d="M150 239 c0 -5 9 -9 20 -9 11 0 20 2 20 4 0 2 -9 6 -20 9 -11 3 -20
1 -20 -4z"/>
<path d="M2485 220 c-3 -5 -1 -10 4 -10 6 0 11 5 11 10 0 6 -2 10 -4 10 -3 0
-8 -4 -11 -10z"/>
<path d="M2358 208 c5 -7 13 -28 17 -45 6 -32 9 -33 54 -33 26 0 51 -4 57 -9
5 -5 34 -18 64 -28 44 -15 59 -26 75 -56 11 -20 25 -37 31 -37 12 0 -42 121
-59 131 -5 4 -2 9 9 12 14 3 12 5 -7 6 -15 0 -38 10 -53 22 -25 20 -28 20 -45
5 -26 -24 -97 -11 -118 20 -8 13 -20 24 -25 24 -7 0 -7 -4 0 -12z"/>
<path d="M10 175 c-16 -20 -9 -27 23 -23 23 3 23 4 7 21 -15 16 -18 16 -30 2z"/>
<path d="M447 153 c-4 -3 -7 -11 -7 -17 0 -6 5 -5 12 2 6 6 9 14 7 17 -3 3 -9
2 -12 -2z"/>
<path d="M239 97 c5 -5 34 -12 63 -15 29 -3 56 -10 60 -16 6 -8 8 -8 8 0 0 17
52 24 69 11 12 -10 12 -9 1 10 -8 12 -19 19 -24 15 -15 -9 -95 -10 -144 -2
-30 5 -41 5 -33 -3z"/>
<path d="M2766 65 c-3 -8 -2 -14 2 -13 6 1 46 -14 82 -32 8 -4 24 -4 35 1 19
7 19 8 -2 8 -13 1 -23 6 -23 12 0 5 -5 7 -10 4 -6 -3 -13 1 -16 10 -6 13 -9
14 -16 3 -7 -10 -10 -10 -19 5 -12 21 -25 22 -33 2z"/>
<path d="M78 49 c9 -9 19 -13 22 -9 3 4 12 9 20 12 8 3 -2 7 -22 9 -35 5 -36
4 -20 -12z"/>
<path d="M220 50 c0 -5 3 -10 8 -11 58 -6 56 -7 37 8 -22 15 -45 17 -45 3z"/>
<path d="M390 40 c0 -5 12 -10 28 -10 15 -1 44 -7 65 -14 20 -8 40 -10 43 -5
2 5 -8 11 -23 14 -15 4 -38 11 -51 16 -30 12 -62 12 -62 -1z"/>
<path d="M166 26 c10 -8 21 -12 24 -10 5 6 -21 24 -34 24 -6 0 -1 -6 10 -14z"/>
<path d="M2730 29 c0 -5 5 -9 11 -9 5 0 7 -4 4 -10 -3 -6 1 -7 9 -4 22 8 20
21 -4 27 -11 3 -20 1 -20 -4z"/>
<path d="M50 19 c0 -5 5 -7 10 -4 6 3 10 1 10 -4 0 -6 10 -11 23 -11 20 0 20
1 -7 15 -34 18 -36 18 -36 4z"/>
<path d="M2700 10 c0 -5 7 -10 16 -10 8 0 12 5 9 10 -3 6 -10 10 -16 10 -5 0
-9 -4 -9 -10z"/>
<path d="M2820 16 c0 -2 7 -7 16 -10 8 -3 12 -2 9 4 -6 10 -25 14 -25 6z"/>
<path d="M208 3 c7 -3 16 -2 19 1 4 3 -2 6 -13 5 -11 0 -14 -3 -6 -6z"/>
</g>
</svg>
